M48
;DRILL file {KiCad 4.0.2-stable} date 2017/02/23 16:32:39
;FORMAT={-:-/ absolute / metric / decimal}
FMAT,2
METRIC,TZ
T1C0.300
T2C0.400
T3C1.000
T4C3.200
%
G90
G05
M71
T1
X119.05Y-135.56
T2
X111.43Y-54.28
X111.43Y-56.82
X111.43Y-59.36
X111.43Y-61.9
X111.43Y-64.44
X111.43Y-66.98
X111.43Y-77.14
X111.43Y-82.22
X111.43Y-117.78
X111.43Y-122.86
X111.43Y-133.02
X111.43Y-135.56
X111.43Y-138.1
X111.43Y-140.64
X111.43Y-143.18
X111.43Y-145.72
X113.97Y-54.28
X113.97Y-56.82
X113.97Y-59.36
X113.97Y-61.9
X113.97Y-64.44
X113.97Y-66.98
X113.97Y-77.14
X113.97Y-82.22
X113.97Y-117.78
X113.97Y-122.86
X113.97Y-133.02
X113.97Y-135.56
X113.97Y-138.1
X113.97Y-140.64
X113.97Y-143.18
X113.97Y-145.72
X116.51Y-54.28
X116.51Y-56.82
X116.51Y-59.36
X116.51Y-61.9
X116.51Y-64.44
X116.51Y-66.98
X116.51Y-77.14
X116.51Y-82.22
X116.51Y-117.78
X116.51Y-122.86
X116.51Y-133.02
X116.51Y-135.56
X116.51Y-138.1
X116.51Y-140.64
X116.51Y-143.18
X116.51Y-145.72
X119.05Y-54.28
X119.05Y-56.82
X119.05Y-59.36
X119.05Y-61.9
X119.05Y-64.44
X119.05Y-66.98
X119.05Y-77.14
X119.05Y-82.22
X119.05Y-117.78
X119.05Y-122.86
X119.05Y-133.02
X119.05Y-138.1
X119.05Y-140.64
X119.05Y-143.18
X119.05Y-145.72
X121.59Y-54.28
X121.59Y-56.82
X121.59Y-59.36
X121.59Y-61.9
X121.59Y-64.44
X121.59Y-66.98
X121.59Y-77.14
X121.59Y-82.22
X121.59Y-117.78
X121.59Y-122.86
X121.59Y-133.02
X121.59Y-135.56
X121.59Y-138.1
X121.59Y-140.64
X121.59Y-143.18
X121.59Y-145.72
X124.13Y-54.28
X124.13Y-56.82
X124.13Y-59.36
X124.13Y-61.9
X124.13Y-64.44
X124.13Y-66.98
X124.13Y-77.14
X124.13Y-82.22
X124.13Y-117.78
X124.13Y-122.86
X124.13Y-133.02
X124.13Y-135.56
X124.13Y-138.1
X124.13Y-140.64
X124.13Y-143.18
X124.13Y-145.72
X126.67Y-54.28
X126.67Y-56.82
X126.67Y-59.36
X126.67Y-61.9
X126.67Y-64.44
X126.67Y-66.98
X126.67Y-77.14
X126.67Y-82.22
X126.67Y-117.78
X126.67Y-122.86
X126.67Y-133.02
X126.67Y-135.56
X126.67Y-138.1
X126.67Y-140.64
X126.67Y-143.18
X126.67Y-145.72
X129.21Y-54.28
X129.21Y-56.82
X129.21Y-59.36
X129.21Y-61.9
X129.21Y-64.44
X129.21Y-66.98
X129.21Y-77.14
X129.21Y-82.22
X129.21Y-117.78
X129.21Y-122.86
X129.21Y-133.02
X129.21Y-135.56
X129.21Y-138.1
X129.21Y-140.64
X129.21Y-143.18
X129.21Y-145.72
X131.75Y-54.28
X131.75Y-56.82
X131.75Y-59.36
X131.75Y-61.9
X131.75Y-64.44
X131.75Y-66.98
X131.75Y-77.14
X131.75Y-82.22
X131.75Y-117.78
X131.75Y-122.86
X131.75Y-133.02
X131.75Y-135.56
X131.75Y-138.1
X131.75Y-140.64
X131.75Y-143.18
X131.75Y-145.72
X134.29Y-54.28
X134.29Y-56.82
X134.29Y-59.36
X134.29Y-61.9
X134.29Y-64.44
X134.29Y-66.98
X134.29Y-77.14
X134.29Y-82.22
X134.29Y-117.78
X134.29Y-122.86
X134.29Y-133.02
X134.29Y-135.56
X134.29Y-138.1
X134.29Y-140.64
X134.29Y-143.18
X134.29Y-145.72
X136.83Y-54.28
X136.83Y-56.82
X136.83Y-59.36
X136.83Y-61.9
X136.83Y-64.44
X136.83Y-66.98
X136.83Y-77.14
X136.83Y-82.22
X136.83Y-117.78
X136.83Y-122.86
X136.83Y-133.02
X136.83Y-135.56
X136.83Y-138.1
X136.83Y-140.64
X136.83Y-143.18
X136.83Y-145.72
X139.37Y-54.28
X139.37Y-56.82
X139.37Y-59.36
X139.37Y-61.9
X139.37Y-64.44
X139.37Y-66.98
X139.37Y-77.14
X139.37Y-82.22
X139.37Y-117.78
X139.37Y-122.86
X139.37Y-133.02
X139.37Y-135.56
X139.37Y-138.1
X139.37Y-140.64
X139.37Y-143.18
X139.37Y-145.72
X141.91Y-54.28
X141.91Y-56.82
X141.91Y-59.36
X141.91Y-61.9
X141.91Y-64.44
X141.91Y-66.98
X141.91Y-77.14
X141.91Y-82.22
X141.91Y-117.78
X141.91Y-122.86
X141.91Y-133.02
X141.91Y-135.56
X141.91Y-138.1
X141.91Y-140.64
X141.91Y-143.18
X141.91Y-145.72
X144.45Y-54.28
X144.45Y-56.82
X144.45Y-59.36
X144.45Y-61.9
X144.45Y-64.44
X144.45Y-66.98
X144.45Y-77.14
X144.45Y-82.22
X144.45Y-117.78
X144.45Y-122.86
X144.45Y-133.02
X144.45Y-135.56
X144.45Y-138.1
X144.45Y-140.64
X144.45Y-143.18
X144.45Y-145.72
X146.99Y-54.28
X146.99Y-56.82
X146.99Y-59.36
X146.99Y-61.9
X146.99Y-64.44
X146.99Y-66.98
X146.99Y-77.14
X146.99Y-82.22
X146.99Y-117.78
X146.99Y-122.86
X146.99Y-133.02
X146.99Y-135.56
X146.99Y-138.1
X146.99Y-140.64
X146.99Y-143.18
X146.99Y-145.72
T3
X105.08Y-60.63
X105.08Y-63.17
X105.08Y-65.71
X105.08Y-68.25
X105.08Y-70.79
X105.08Y-73.33
X105.08Y-78.41
X105.08Y-80.95
X105.08Y-119.05
X105.08Y-121.59
X105.08Y-126.67
X105.08Y-129.21
X105.08Y-131.75
X105.08Y-134.29
X105.08Y-136.83
X105.08Y-139.37
X110.16Y-73.33
X110.16Y-78.41
X110.16Y-83.49
X110.16Y-86.03
X110.16Y-88.57
X110.16Y-91.11
X110.16Y-93.65
X110.16Y-96.19
X110.16Y-103.81
X110.16Y-106.35
X110.16Y-108.89
X110.16Y-111.43
X110.16Y-113.97
X110.16Y-116.51
X110.16Y-121.59
X110.16Y-126.67
X112.7Y-73.33
X112.7Y-78.41
X112.7Y-83.49
X112.7Y-86.03
X112.7Y-88.57
X112.7Y-91.11
X112.7Y-93.65
X112.7Y-96.19
X112.7Y-103.81
X112.7Y-106.35
X112.7Y-108.89
X112.7Y-111.43
X112.7Y-113.97
X112.7Y-116.51
X112.7Y-121.59
X112.7Y-126.67
X115.24Y-73.33
X115.24Y-78.41
X115.24Y-83.49
X115.24Y-86.03
X115.24Y-88.57
X115.24Y-91.11
X115.24Y-93.65
X115.24Y-96.19
X115.24Y-103.81
X115.24Y-106.35
X115.24Y-108.89
X115.24Y-111.43
X115.24Y-113.97
X115.24Y-116.51
X115.24Y-121.59
X115.24Y-126.67
X117.78Y-73.33
X117.78Y-78.41
X117.78Y-83.49
X117.78Y-86.03
X117.78Y-88.57
X117.78Y-91.11
X117.78Y-93.65
X117.78Y-96.19
X117.78Y-103.81
X117.78Y-106.35
X117.78Y-108.89
X117.78Y-111.43
X117.78Y-113.97
X117.78Y-116.51
X117.78Y-121.59
X117.78Y-126.67
X120.32Y-73.33
X120.32Y-78.41
X120.32Y-83.49
X120.32Y-86.03
X120.32Y-88.57
X120.32Y-91.11
X120.32Y-93.65
X120.32Y-96.19
X120.32Y-103.81
X120.32Y-106.35
X120.32Y-108.89
X120.32Y-111.43
X120.32Y-113.97
X120.32Y-116.51
X120.32Y-121.59
X120.32Y-126.67
X122.86Y-73.33
X122.86Y-78.41
X122.86Y-83.49
X122.86Y-86.03
X122.86Y-88.57
X122.86Y-91.11
X122.86Y-93.65
X122.86Y-96.19
X122.86Y-103.81
X122.86Y-106.35
X122.86Y-108.89
X122.86Y-111.43
X122.86Y-113.97
X122.86Y-116.51
X122.86Y-121.59
X122.86Y-126.67
X125.4Y-73.33
X125.4Y-78.41
X125.4Y-83.49
X125.4Y-86.03
X125.4Y-88.57
X125.4Y-91.11
X125.4Y-93.65
X125.4Y-96.19
X125.4Y-103.81
X125.4Y-106.35
X125.4Y-108.89
X125.4Y-111.43
X125.4Y-113.97
X125.4Y-116.51
X125.4Y-121.59
X125.4Y-126.67
X127.94Y-73.33
X127.94Y-78.41
X127.94Y-83.49
X127.94Y-86.03
X127.94Y-88.57
X127.94Y-91.11
X127.94Y-93.65
X127.94Y-96.19
X127.94Y-103.81
X127.94Y-106.35
X127.94Y-108.89
X127.94Y-111.43
X127.94Y-113.97
X127.94Y-116.51
X127.94Y-121.59
X127.94Y-126.67
X130.48Y-73.33
X130.48Y-78.41
X130.48Y-83.49
X130.48Y-86.03
X130.48Y-88.57
X130.48Y-91.11
X130.48Y-93.65
X130.48Y-96.19
X130.48Y-103.81
X130.48Y-106.35
X130.48Y-108.89
X130.48Y-111.43
X130.48Y-113.97
X130.48Y-116.51
X130.48Y-121.59
X130.48Y-126.67
X133.02Y-73.33
X133.02Y-78.41
X133.02Y-83.49
X133.02Y-86.03
X133.02Y-88.57
X133.02Y-91.11
X133.02Y-93.65
X133.02Y-96.19
X133.02Y-103.81
X133.02Y-106.35
X133.02Y-108.89
X133.02Y-111.43
X133.02Y-113.97
X133.02Y-116.51
X133.02Y-121.59
X133.02Y-126.67
X135.56Y-73.33
X135.56Y-78.41
X135.56Y-83.49
X135.56Y-86.03
X135.56Y-88.57
X135.56Y-91.11
X135.56Y-93.65
X135.56Y-96.19
X135.56Y-103.81
X135.56Y-106.35
X135.56Y-108.89
X135.56Y-111.43
X135.56Y-113.97
X135.56Y-116.51
X135.56Y-121.59
X135.56Y-126.67
X138.1Y-73.33
X138.1Y-78.41
X138.1Y-83.49
X138.1Y-86.03
X138.1Y-88.57
X138.1Y-91.11
X138.1Y-93.65
X138.1Y-96.19
X138.1Y-103.81
X138.1Y-106.35
X138.1Y-108.89
X138.1Y-111.43
X138.1Y-113.97
X138.1Y-116.51
X138.1Y-121.59
X138.1Y-126.67
X140.64Y-73.33
X140.64Y-78.41
X140.64Y-83.49
X140.64Y-86.03
X140.64Y-88.57
X140.64Y-91.11
X140.64Y-93.65
X140.64Y-96.19
X140.64Y-103.81
X140.64Y-106.35
X140.64Y-108.89
X140.64Y-111.43
X140.64Y-113.97
X140.64Y-116.51
X140.64Y-121.59
X140.64Y-126.67
X143.18Y-73.33
X143.18Y-78.41
X143.18Y-83.49
X143.18Y-86.03
X143.18Y-88.57
X143.18Y-91.11
X143.18Y-93.65
X143.18Y-96.19
X143.18Y-103.81
X143.18Y-106.35
X143.18Y-108.89
X143.18Y-111.43
X143.18Y-113.97
X143.18Y-116.51
X143.18Y-121.59
X143.18Y-126.67
X145.72Y-73.33
X145.72Y-78.41
X145.72Y-83.49
X145.72Y-86.03
X145.72Y-88.57
X145.72Y-91.11
X145.72Y-93.65
X145.72Y-96.19
X145.72Y-103.81
X145.72Y-106.35
X145.72Y-108.89
X145.72Y-111.43
X145.72Y-113.97
X145.72Y-116.51
X145.72Y-121.59
X145.72Y-126.67
T4
X105.Y-55.
X105.Y-145.
X195.Y-55.
X195.Y-145.
T0
M30
