G04 #@! TF.FileFunction,Copper,L1,Top,Signal*
%FSLAX45Y45*%
G04 Gerber Fmt 4.5, Leading zero omitted, Abs format (unit mm)*
G04 Created by KiCad (PCBNEW 4.0.2-stable) date 2017/02/23 16:32:30*
%MOMM*%
G01*
G04 APERTURE LIST*
%ADD10C,0.200000*%
%ADD11R,1.700000X1.700000*%
%ADD12O,1.700000X1.700000*%
%ADD13C,1.600000*%
%ADD14R,1.500000X0.800000*%
%ADD15C,0.600000*%
%ADD16C,0.400000*%
G04 APERTURE END LIST*
D10*
D11*
X10508000Y-7333000D03*
D12*
X10508000Y-7079000D03*
X10508000Y-6825000D03*
X10508000Y-6571000D03*
X10508000Y-6317000D03*
X10508000Y-6063000D03*
D11*
X10508000Y-8095000D03*
D12*
X10508000Y-7841000D03*
D11*
X10508000Y-11905000D03*
D12*
X10508000Y-12159000D03*
D11*
X10508000Y-12667000D03*
D12*
X10508000Y-12921000D03*
X10508000Y-13175000D03*
X10508000Y-13429000D03*
X10508000Y-13683000D03*
X10508000Y-13937000D03*
D13*
X11016000Y-9619000D03*
X11016000Y-9365000D03*
X11016000Y-9111000D03*
X11016000Y-8857000D03*
X11016000Y-8603000D03*
X11016000Y-8349000D03*
X11016000Y-11651000D03*
X11016000Y-11397000D03*
X11016000Y-11143000D03*
X11016000Y-10889000D03*
X11016000Y-10635000D03*
X11016000Y-10381000D03*
X11016000Y-7333000D03*
X11016000Y-7841000D03*
X11016000Y-12667000D03*
X11016000Y-12159000D03*
X11270000Y-9619000D03*
X11270000Y-9365000D03*
X11270000Y-9111000D03*
X11270000Y-8857000D03*
X11270000Y-8603000D03*
X11270000Y-8349000D03*
X11270000Y-11651000D03*
X11270000Y-11397000D03*
X11270000Y-11143000D03*
X11270000Y-10889000D03*
X11270000Y-10635000D03*
X11270000Y-10381000D03*
X11270000Y-7333000D03*
X11270000Y-7841000D03*
X11270000Y-12667000D03*
X11270000Y-12159000D03*
X11524000Y-9619000D03*
X11524000Y-9365000D03*
X11524000Y-9111000D03*
X11524000Y-8857000D03*
X11524000Y-8603000D03*
X11524000Y-8349000D03*
X11524000Y-11651000D03*
X11524000Y-11397000D03*
X11524000Y-11143000D03*
X11524000Y-10889000D03*
X11524000Y-10635000D03*
X11524000Y-10381000D03*
X11524000Y-7333000D03*
X11524000Y-7841000D03*
X11524000Y-12667000D03*
X11524000Y-12159000D03*
X11778000Y-9619000D03*
X11778000Y-9365000D03*
X11778000Y-9111000D03*
X11778000Y-8857000D03*
X11778000Y-8603000D03*
X11778000Y-8349000D03*
X11778000Y-11651000D03*
X11778000Y-11397000D03*
X11778000Y-11143000D03*
X11778000Y-10889000D03*
X11778000Y-10635000D03*
X11778000Y-10381000D03*
X11778000Y-7333000D03*
X11778000Y-7841000D03*
X11778000Y-12667000D03*
X11778000Y-12159000D03*
X12032000Y-9619000D03*
X12032000Y-9365000D03*
X12032000Y-9111000D03*
X12032000Y-8857000D03*
X12032000Y-8603000D03*
X12032000Y-8349000D03*
X12032000Y-11651000D03*
X12032000Y-11397000D03*
X12032000Y-11143000D03*
X12032000Y-10889000D03*
X12032000Y-10635000D03*
X12032000Y-10381000D03*
X12032000Y-7333000D03*
X12032000Y-7841000D03*
X12032000Y-12667000D03*
X12032000Y-12159000D03*
X12286000Y-9619000D03*
X12286000Y-9365000D03*
X12286000Y-9111000D03*
X12286000Y-8857000D03*
X12286000Y-8603000D03*
X12286000Y-8349000D03*
X12286000Y-11651000D03*
X12286000Y-11397000D03*
X12286000Y-11143000D03*
X12286000Y-10889000D03*
X12286000Y-10635000D03*
X12286000Y-10381000D03*
X12286000Y-7333000D03*
X12286000Y-7841000D03*
X12286000Y-12667000D03*
X12286000Y-12159000D03*
X12540000Y-9619000D03*
X12540000Y-9365000D03*
X12540000Y-9111000D03*
X12540000Y-8857000D03*
X12540000Y-8603000D03*
X12540000Y-8349000D03*
X12540000Y-11651000D03*
X12540000Y-11397000D03*
X12540000Y-11143000D03*
X12540000Y-10889000D03*
X12540000Y-10635000D03*
X12540000Y-10381000D03*
X12540000Y-7333000D03*
X12540000Y-7841000D03*
X12540000Y-12667000D03*
X12540000Y-12159000D03*
X12794000Y-9619000D03*
X12794000Y-9365000D03*
X12794000Y-9111000D03*
X12794000Y-8857000D03*
X12794000Y-8603000D03*
X12794000Y-8349000D03*
X12794000Y-11651000D03*
X12794000Y-11397000D03*
X12794000Y-11143000D03*
X12794000Y-10889000D03*
X12794000Y-10635000D03*
X12794000Y-10381000D03*
X12794000Y-7333000D03*
X12794000Y-7841000D03*
X12794000Y-12667000D03*
X12794000Y-12159000D03*
X13048000Y-9619000D03*
X13048000Y-9365000D03*
X13048000Y-9111000D03*
X13048000Y-8857000D03*
X13048000Y-8603000D03*
X13048000Y-8349000D03*
X13048000Y-11651000D03*
X13048000Y-11397000D03*
X13048000Y-11143000D03*
X13048000Y-10889000D03*
X13048000Y-10635000D03*
X13048000Y-10381000D03*
X13048000Y-7333000D03*
X13048000Y-7841000D03*
X13048000Y-12667000D03*
X13048000Y-12159000D03*
X13302000Y-9619000D03*
X13302000Y-9365000D03*
X13302000Y-9111000D03*
X13302000Y-8857000D03*
X13302000Y-8603000D03*
X13302000Y-8349000D03*
X13302000Y-11651000D03*
X13302000Y-11397000D03*
X13302000Y-11143000D03*
X13302000Y-10889000D03*
X13302000Y-10635000D03*
X13302000Y-10381000D03*
X13302000Y-7333000D03*
X13302000Y-7841000D03*
X13302000Y-12667000D03*
X13302000Y-12159000D03*
X13556000Y-9619000D03*
X13556000Y-9365000D03*
X13556000Y-9111000D03*
X13556000Y-8857000D03*
X13556000Y-8603000D03*
X13556000Y-8349000D03*
X13556000Y-11651000D03*
X13556000Y-11397000D03*
X13556000Y-11143000D03*
X13556000Y-10889000D03*
X13556000Y-10635000D03*
X13556000Y-10381000D03*
X13556000Y-7333000D03*
X13556000Y-7841000D03*
X13556000Y-12667000D03*
X13556000Y-12159000D03*
X13810000Y-9619000D03*
X13810000Y-9365000D03*
X13810000Y-9111000D03*
X13810000Y-8857000D03*
X13810000Y-8603000D03*
X13810000Y-8349000D03*
X13810000Y-11651000D03*
X13810000Y-11397000D03*
X13810000Y-11143000D03*
X13810000Y-10889000D03*
X13810000Y-10635000D03*
X13810000Y-10381000D03*
X13810000Y-7333000D03*
X13810000Y-7841000D03*
X13810000Y-12667000D03*
X13810000Y-12159000D03*
X14064000Y-9619000D03*
X14064000Y-9365000D03*
X14064000Y-9111000D03*
X14064000Y-8857000D03*
X14064000Y-8603000D03*
X14064000Y-8349000D03*
X14064000Y-11651000D03*
X14064000Y-11397000D03*
X14064000Y-11143000D03*
X14064000Y-10889000D03*
X14064000Y-10635000D03*
X14064000Y-10381000D03*
X14064000Y-7333000D03*
X14064000Y-7841000D03*
X14064000Y-12667000D03*
X14064000Y-12159000D03*
X14318000Y-9619000D03*
X14318000Y-9365000D03*
X14318000Y-9111000D03*
X14318000Y-8857000D03*
X14318000Y-8603000D03*
X14318000Y-8349000D03*
X14318000Y-11651000D03*
X14318000Y-11397000D03*
X14318000Y-11143000D03*
X14318000Y-10889000D03*
X14318000Y-10635000D03*
X14318000Y-10381000D03*
X14318000Y-7333000D03*
X14318000Y-7841000D03*
X14318000Y-12667000D03*
X14318000Y-12159000D03*
X14572000Y-9619000D03*
X14572000Y-9365000D03*
X14572000Y-9111000D03*
X14572000Y-8857000D03*
X14572000Y-8603000D03*
X14572000Y-8349000D03*
X14572000Y-11651000D03*
X14572000Y-11397000D03*
X14572000Y-11143000D03*
X14572000Y-10889000D03*
X14572000Y-10635000D03*
X14572000Y-10381000D03*
X14572000Y-7333000D03*
X14572000Y-7841000D03*
X14572000Y-12667000D03*
X14572000Y-12159000D03*
D14*
X13810000Y-5864000D03*
X13810000Y-5754000D03*
X11778000Y-5610000D03*
X11778000Y-5500000D03*
X11016000Y-5610000D03*
X11016000Y-5500000D03*
X11016000Y-5864000D03*
X11016000Y-5754000D03*
X11016000Y-6118000D03*
X11016000Y-6008000D03*
X11016000Y-6372000D03*
X11016000Y-6262000D03*
X11016000Y-6626000D03*
X11016000Y-6516000D03*
X11016000Y-6880000D03*
X11016000Y-6770000D03*
X11016000Y-7532000D03*
X11016000Y-7642000D03*
X11016000Y-8040000D03*
X11016000Y-8150000D03*
X11016000Y-11960000D03*
X11016000Y-11850000D03*
X11016000Y-12468000D03*
X11016000Y-12358000D03*
X11016000Y-13120000D03*
X11016000Y-13230000D03*
X11016000Y-13374000D03*
X11016000Y-13484000D03*
X11016000Y-13628000D03*
X11016000Y-13738000D03*
X11016000Y-13882000D03*
X11016000Y-13992000D03*
X11016000Y-14136000D03*
X11016000Y-14246000D03*
X11016000Y-14390000D03*
X11016000Y-14500000D03*
X11270000Y-5610000D03*
X11270000Y-5500000D03*
X11270000Y-5864000D03*
X11270000Y-5754000D03*
X11270000Y-6118000D03*
X11270000Y-6008000D03*
X11270000Y-6372000D03*
X11270000Y-6262000D03*
X11270000Y-6626000D03*
X11270000Y-6516000D03*
X11270000Y-6880000D03*
X11270000Y-6770000D03*
X11270000Y-7532000D03*
X11270000Y-7642000D03*
X11270000Y-8040000D03*
X11270000Y-8150000D03*
X11270000Y-11960000D03*
X11270000Y-11850000D03*
X11270000Y-12468000D03*
X11270000Y-12358000D03*
X11270000Y-13120000D03*
X11270000Y-13230000D03*
X11270000Y-13374000D03*
X11270000Y-13484000D03*
X11270000Y-13628000D03*
X11270000Y-13738000D03*
X11270000Y-13882000D03*
X11270000Y-13992000D03*
X11270000Y-14136000D03*
X11270000Y-14246000D03*
X11270000Y-14390000D03*
X11270000Y-14500000D03*
X11524000Y-5610000D03*
X11524000Y-5500000D03*
X11524000Y-5864000D03*
X11524000Y-5754000D03*
X11524000Y-6118000D03*
X11524000Y-6008000D03*
X11524000Y-6372000D03*
X11524000Y-6262000D03*
X11524000Y-6626000D03*
X11524000Y-6516000D03*
X11524000Y-6880000D03*
X11524000Y-6770000D03*
X11524000Y-7532000D03*
X11524000Y-7642000D03*
X11524000Y-8040000D03*
X11524000Y-8150000D03*
X11524000Y-11960000D03*
X11524000Y-11850000D03*
X11524000Y-12468000D03*
X11524000Y-12358000D03*
X11524000Y-13120000D03*
X11524000Y-13230000D03*
X11524000Y-13374000D03*
X11524000Y-13484000D03*
X11524000Y-13628000D03*
X11524000Y-13738000D03*
X11524000Y-13882000D03*
X11524000Y-13992000D03*
X11524000Y-14136000D03*
X11524000Y-14246000D03*
X11524000Y-14390000D03*
X11524000Y-14500000D03*
X11778000Y-5864000D03*
X11778000Y-5754000D03*
X11778000Y-6118000D03*
X11778000Y-6008000D03*
X11778000Y-6372000D03*
X11778000Y-6262000D03*
X11778000Y-6626000D03*
X11778000Y-6516000D03*
X11778000Y-6880000D03*
X11778000Y-6770000D03*
X11778000Y-7532000D03*
X11778000Y-7642000D03*
X11778000Y-8040000D03*
X11778000Y-8150000D03*
X11778000Y-11960000D03*
X11778000Y-11850000D03*
X11778000Y-12468000D03*
X11778000Y-12358000D03*
X11778000Y-13120000D03*
X11778000Y-13230000D03*
X11778000Y-13374000D03*
X11778000Y-13484000D03*
X11778000Y-13628000D03*
X11778000Y-13738000D03*
X11778000Y-13882000D03*
X11778000Y-13992000D03*
X11778000Y-14136000D03*
X11778000Y-14246000D03*
X11778000Y-14390000D03*
X11778000Y-14500000D03*
X12032000Y-5610000D03*
X12032000Y-5500000D03*
X12032000Y-5864000D03*
X12032000Y-5754000D03*
X12032000Y-6118000D03*
X12032000Y-6008000D03*
X12032000Y-6372000D03*
X12032000Y-6262000D03*
X12032000Y-6626000D03*
X12032000Y-6516000D03*
X12032000Y-6880000D03*
X12032000Y-6770000D03*
X12032000Y-7532000D03*
X12032000Y-7642000D03*
X12032000Y-8040000D03*
X12032000Y-8150000D03*
X12032000Y-11960000D03*
X12032000Y-11850000D03*
X12032000Y-12468000D03*
X12032000Y-12358000D03*
X12032000Y-13120000D03*
X12032000Y-13230000D03*
X12032000Y-13374000D03*
X12032000Y-13484000D03*
X12032000Y-13628000D03*
X12032000Y-13738000D03*
X12032000Y-13882000D03*
X12032000Y-13992000D03*
X12032000Y-14136000D03*
X12032000Y-14246000D03*
X12032000Y-14390000D03*
X12032000Y-14500000D03*
X12286000Y-5610000D03*
X12286000Y-5500000D03*
X12286000Y-5864000D03*
X12286000Y-5754000D03*
X12286000Y-6118000D03*
X12286000Y-6008000D03*
X12286000Y-6372000D03*
X12286000Y-6262000D03*
X12286000Y-6626000D03*
X12286000Y-6516000D03*
X12286000Y-6880000D03*
X12286000Y-6770000D03*
X12286000Y-7532000D03*
X12286000Y-7642000D03*
X12286000Y-8040000D03*
X12286000Y-8150000D03*
X12286000Y-11960000D03*
X12286000Y-11850000D03*
X12286000Y-12468000D03*
X12286000Y-12358000D03*
X12286000Y-13120000D03*
X12286000Y-13230000D03*
X12286000Y-13374000D03*
X12286000Y-13484000D03*
X12286000Y-13628000D03*
X12286000Y-13738000D03*
X12286000Y-13882000D03*
X12286000Y-13992000D03*
X12286000Y-14136000D03*
X12286000Y-14246000D03*
X12286000Y-14390000D03*
X12286000Y-14500000D03*
X12540000Y-5610000D03*
X12540000Y-5500000D03*
X12540000Y-5864000D03*
X12540000Y-5754000D03*
X12540000Y-6118000D03*
X12540000Y-6008000D03*
X12540000Y-6372000D03*
X12540000Y-6262000D03*
X12540000Y-6626000D03*
X12540000Y-6516000D03*
X12540000Y-6880000D03*
X12540000Y-6770000D03*
X12540000Y-7532000D03*
X12540000Y-7642000D03*
X12540000Y-8040000D03*
X12540000Y-8150000D03*
X12540000Y-11960000D03*
X12540000Y-11850000D03*
X12540000Y-12468000D03*
X12540000Y-12358000D03*
X12540000Y-13120000D03*
X12540000Y-13230000D03*
X12540000Y-13374000D03*
X12540000Y-13484000D03*
X12540000Y-13628000D03*
X12540000Y-13738000D03*
X12540000Y-13882000D03*
X12540000Y-13992000D03*
X12540000Y-14136000D03*
X12540000Y-14246000D03*
X12540000Y-14390000D03*
X12540000Y-14500000D03*
X12794000Y-5610000D03*
X12794000Y-5500000D03*
X12794000Y-5864000D03*
X12794000Y-5754000D03*
X12794000Y-6118000D03*
X12794000Y-6008000D03*
X12794000Y-6372000D03*
X12794000Y-6262000D03*
X12794000Y-6626000D03*
X12794000Y-6516000D03*
X12794000Y-6880000D03*
X12794000Y-6770000D03*
X12794000Y-7532000D03*
X12794000Y-7642000D03*
X12794000Y-8040000D03*
X12794000Y-8150000D03*
X12794000Y-11960000D03*
X12794000Y-11850000D03*
X12794000Y-12468000D03*
X12794000Y-12358000D03*
X12794000Y-13120000D03*
X12794000Y-13230000D03*
X12794000Y-13374000D03*
X12794000Y-13484000D03*
X12794000Y-13628000D03*
X12794000Y-13738000D03*
X12794000Y-13882000D03*
X12794000Y-13992000D03*
X12794000Y-14136000D03*
X12794000Y-14246000D03*
X12794000Y-14390000D03*
X12794000Y-14500000D03*
X13048000Y-5610000D03*
X13048000Y-5500000D03*
X13048000Y-5864000D03*
X13048000Y-5754000D03*
X13048000Y-6118000D03*
X13048000Y-6008000D03*
X13048000Y-6372000D03*
X13048000Y-6262000D03*
X13048000Y-6626000D03*
X13048000Y-6516000D03*
X13048000Y-6880000D03*
X13048000Y-6770000D03*
X13048000Y-7532000D03*
X13048000Y-7642000D03*
X13048000Y-8040000D03*
X13048000Y-8150000D03*
X13048000Y-11960000D03*
X13048000Y-11850000D03*
X13048000Y-12468000D03*
X13048000Y-12358000D03*
X13048000Y-13120000D03*
X13048000Y-13230000D03*
X13048000Y-13374000D03*
X13048000Y-13484000D03*
X13048000Y-13628000D03*
X13048000Y-13738000D03*
X13048000Y-13882000D03*
X13048000Y-13992000D03*
X13048000Y-14136000D03*
X13048000Y-14246000D03*
X13048000Y-14390000D03*
X13048000Y-14500000D03*
X13302000Y-5610000D03*
X13302000Y-5500000D03*
X13302000Y-5864000D03*
X13302000Y-5754000D03*
X13302000Y-6118000D03*
X13302000Y-6008000D03*
X13302000Y-6372000D03*
X13302000Y-6262000D03*
X13302000Y-6626000D03*
X13302000Y-6516000D03*
X13302000Y-6880000D03*
X13302000Y-6770000D03*
X13302000Y-7532000D03*
X13302000Y-7642000D03*
X13302000Y-8040000D03*
X13302000Y-8150000D03*
X13302000Y-11960000D03*
X13302000Y-11850000D03*
X13302000Y-12468000D03*
X13302000Y-12358000D03*
X13302000Y-13120000D03*
X13302000Y-13230000D03*
X13302000Y-13374000D03*
X13302000Y-13484000D03*
X13302000Y-13628000D03*
X13302000Y-13738000D03*
X13302000Y-13882000D03*
X13302000Y-13992000D03*
X13302000Y-14136000D03*
X13302000Y-14246000D03*
X13302000Y-14390000D03*
X13302000Y-14500000D03*
X13556000Y-5610000D03*
X13556000Y-5500000D03*
X13556000Y-5864000D03*
X13556000Y-5754000D03*
X13556000Y-6118000D03*
X13556000Y-6008000D03*
X13556000Y-6372000D03*
X13556000Y-6262000D03*
X13556000Y-6626000D03*
X13556000Y-6516000D03*
X13556000Y-6880000D03*
X13556000Y-6770000D03*
X13556000Y-7532000D03*
X13556000Y-7642000D03*
X13556000Y-8040000D03*
X13556000Y-8150000D03*
X13556000Y-11960000D03*
X13556000Y-11850000D03*
X13556000Y-12468000D03*
X13556000Y-12358000D03*
X13556000Y-13120000D03*
X13556000Y-13230000D03*
X13556000Y-13374000D03*
X13556000Y-13484000D03*
X13556000Y-13628000D03*
X13556000Y-13738000D03*
X13556000Y-13882000D03*
X13556000Y-13992000D03*
X13556000Y-14136000D03*
X13556000Y-14246000D03*
X13556000Y-14390000D03*
X13556000Y-14500000D03*
X13810000Y-5610000D03*
X13810000Y-5500000D03*
X13810000Y-6118000D03*
X13810000Y-6008000D03*
X13810000Y-6372000D03*
X13810000Y-6262000D03*
X13810000Y-6626000D03*
X13810000Y-6516000D03*
X13810000Y-6880000D03*
X13810000Y-6770000D03*
X13810000Y-7532000D03*
X13810000Y-7642000D03*
X13810000Y-8040000D03*
X13810000Y-8150000D03*
X13810000Y-11960000D03*
X13810000Y-11850000D03*
X13810000Y-12468000D03*
X13810000Y-12358000D03*
X13810000Y-13120000D03*
X13810000Y-13230000D03*
X13810000Y-13374000D03*
X13810000Y-13484000D03*
X13810000Y-13628000D03*
X13810000Y-13738000D03*
X13810000Y-13882000D03*
X13810000Y-13992000D03*
X13810000Y-14136000D03*
X13810000Y-14246000D03*
X13810000Y-14390000D03*
X13810000Y-14500000D03*
X14064000Y-5610000D03*
X14064000Y-5500000D03*
X14064000Y-5864000D03*
X14064000Y-5754000D03*
X14064000Y-6118000D03*
X14064000Y-6008000D03*
X14064000Y-6372000D03*
X14064000Y-6262000D03*
X14064000Y-6626000D03*
X14064000Y-6516000D03*
X14064000Y-6880000D03*
X14064000Y-6770000D03*
X14064000Y-7532000D03*
X14064000Y-7642000D03*
X14064000Y-8040000D03*
X14064000Y-8150000D03*
X14064000Y-11960000D03*
X14064000Y-11850000D03*
X14064000Y-12468000D03*
X14064000Y-12358000D03*
X14064000Y-13120000D03*
X14064000Y-13230000D03*
X14064000Y-13374000D03*
X14064000Y-13484000D03*
X14064000Y-13628000D03*
X14064000Y-13738000D03*
X14064000Y-13882000D03*
X14064000Y-13992000D03*
X14064000Y-14136000D03*
X14064000Y-14246000D03*
X14064000Y-14390000D03*
X14064000Y-14500000D03*
X14318000Y-5610000D03*
X14318000Y-5500000D03*
X14318000Y-5864000D03*
X14318000Y-5754000D03*
X14318000Y-6118000D03*
X14318000Y-6008000D03*
X14318000Y-6372000D03*
X14318000Y-6262000D03*
X14318000Y-6626000D03*
X14318000Y-6516000D03*
X14318000Y-6880000D03*
X14318000Y-6770000D03*
X14318000Y-7532000D03*
X14318000Y-7642000D03*
X14318000Y-8040000D03*
X14318000Y-8150000D03*
X14318000Y-11960000D03*
X14318000Y-11850000D03*
X14318000Y-12468000D03*
X14318000Y-12358000D03*
X14318000Y-13120000D03*
X14318000Y-13230000D03*
X14318000Y-13374000D03*
X14318000Y-13484000D03*
X14318000Y-13628000D03*
X14318000Y-13738000D03*
X14318000Y-13882000D03*
X14318000Y-13992000D03*
X14318000Y-14136000D03*
X14318000Y-14246000D03*
X14318000Y-14390000D03*
X14318000Y-14500000D03*
X14572000Y-5610000D03*
X14572000Y-5500000D03*
X14572000Y-5864000D03*
X14572000Y-5754000D03*
X14572000Y-6118000D03*
X14572000Y-6008000D03*
X14572000Y-6372000D03*
X14572000Y-6262000D03*
X14572000Y-6626000D03*
X14572000Y-6516000D03*
X14572000Y-6880000D03*
X14572000Y-6770000D03*
X14572000Y-7532000D03*
X14572000Y-7642000D03*
X14572000Y-8040000D03*
X14572000Y-8150000D03*
X14572000Y-11960000D03*
X14572000Y-11850000D03*
X14572000Y-12468000D03*
X14572000Y-12358000D03*
X14572000Y-13120000D03*
X14572000Y-13230000D03*
X14572000Y-13374000D03*
X14572000Y-13484000D03*
X14572000Y-13628000D03*
X14572000Y-13738000D03*
X14572000Y-13882000D03*
X14572000Y-13992000D03*
X14572000Y-14136000D03*
X14572000Y-14246000D03*
X14572000Y-14390000D03*
X14572000Y-14500000D03*
D15*
X11143000Y-5428000D03*
X11143000Y-5682000D03*
X11143000Y-5936000D03*
X11143000Y-6190000D03*
X11143000Y-6444000D03*
X11143000Y-6698000D03*
X11143000Y-7714000D03*
X11143000Y-8222000D03*
X11143000Y-13556000D03*
X11143000Y-13810000D03*
X11143000Y-14318000D03*
X11143000Y-14572000D03*
X11143000Y-13302000D03*
X11143000Y-12286000D03*
X11143000Y-11778000D03*
X11143000Y-14064000D03*
X11397000Y-8222000D03*
X11397000Y-7714000D03*
X11397000Y-6698000D03*
X11397000Y-6444000D03*
X11397000Y-6190000D03*
X11397000Y-5936000D03*
X11397000Y-5682000D03*
X11397000Y-5428000D03*
X11397000Y-11778000D03*
X11397000Y-12286000D03*
X11397000Y-13302000D03*
X11397000Y-14572000D03*
X11397000Y-14318000D03*
X11397000Y-14064000D03*
X11397000Y-13810000D03*
X11397000Y-13556000D03*
X11651000Y-8222000D03*
X11651000Y-7714000D03*
X11651000Y-6698000D03*
X11651000Y-6444000D03*
X11651000Y-6190000D03*
X11651000Y-5936000D03*
X11651000Y-5682000D03*
X11651000Y-5428000D03*
X11651000Y-11778000D03*
X11651000Y-12286000D03*
X11651000Y-13302000D03*
X11651000Y-14572000D03*
X11651000Y-14318000D03*
X11651000Y-14064000D03*
X11651000Y-13810000D03*
X11651000Y-13556000D03*
X11905000Y-5428000D03*
X11905000Y-5682000D03*
X11905000Y-5936000D03*
X11905000Y-6190000D03*
X11905000Y-6444000D03*
X11905000Y-6698000D03*
X11905000Y-7714000D03*
X11905000Y-8222000D03*
X11905000Y-14318000D03*
X11905000Y-14572000D03*
X11905000Y-13302000D03*
X11905000Y-12286000D03*
X11905000Y-11778000D03*
X11905000Y-13556000D03*
X11905000Y-13810000D03*
X11905000Y-14064000D03*
X12159000Y-8222000D03*
X12159000Y-7714000D03*
X12159000Y-6698000D03*
X12159000Y-6444000D03*
X12159000Y-6190000D03*
X12159000Y-5936000D03*
X12159000Y-5682000D03*
X12159000Y-5428000D03*
X12159000Y-11778000D03*
X12159000Y-12286000D03*
X12159000Y-13302000D03*
X12159000Y-14572000D03*
X12159000Y-14318000D03*
X12159000Y-14064000D03*
X12159000Y-13810000D03*
X12159000Y-13556000D03*
X12413000Y-5428000D03*
X12413000Y-5682000D03*
X12413000Y-5936000D03*
X12413000Y-6190000D03*
X12413000Y-6444000D03*
X12413000Y-6698000D03*
X12413000Y-7714000D03*
X12413000Y-8222000D03*
X12413000Y-13556000D03*
X12413000Y-13810000D03*
X12413000Y-14064000D03*
X12413000Y-14318000D03*
X12413000Y-14572000D03*
X12413000Y-13302000D03*
X12413000Y-12286000D03*
X12413000Y-11778000D03*
X12667000Y-5428000D03*
X12667000Y-5682000D03*
X12667000Y-5936000D03*
X12667000Y-6190000D03*
X12667000Y-6444000D03*
X12667000Y-6698000D03*
X12667000Y-7714000D03*
X12667000Y-8222000D03*
X12667000Y-14318000D03*
X12667000Y-14572000D03*
X12667000Y-13302000D03*
X12667000Y-12286000D03*
X12667000Y-11778000D03*
X12667000Y-13556000D03*
X12667000Y-13810000D03*
X12667000Y-14064000D03*
X12921000Y-8222000D03*
X12921000Y-7714000D03*
X12921000Y-6698000D03*
X12921000Y-6444000D03*
X12921000Y-6190000D03*
X12921000Y-5936000D03*
X12921000Y-5682000D03*
X12921000Y-5428000D03*
X12921000Y-11778000D03*
X12921000Y-12286000D03*
X12921000Y-13302000D03*
X12921000Y-14572000D03*
X12921000Y-14318000D03*
X12921000Y-14064000D03*
X12921000Y-13810000D03*
X12921000Y-13556000D03*
X13175000Y-5428000D03*
X13175000Y-5682000D03*
X13175000Y-5936000D03*
X13175000Y-6190000D03*
X13175000Y-6444000D03*
X13175000Y-6698000D03*
X13175000Y-7714000D03*
X13175000Y-8222000D03*
X13175000Y-13556000D03*
X13175000Y-13810000D03*
X13175000Y-14064000D03*
X13175000Y-14318000D03*
X13175000Y-14572000D03*
X13175000Y-13302000D03*
X13175000Y-12286000D03*
X13175000Y-11778000D03*
X13429000Y-5428000D03*
X13429000Y-5682000D03*
X13429000Y-5936000D03*
X13429000Y-6190000D03*
X13429000Y-6444000D03*
X13429000Y-6698000D03*
X13429000Y-7714000D03*
X13429000Y-8222000D03*
X13429000Y-13556000D03*
X13429000Y-13810000D03*
X13429000Y-14064000D03*
X13429000Y-14318000D03*
X13429000Y-14572000D03*
X13429000Y-13302000D03*
X13429000Y-12286000D03*
X13429000Y-11778000D03*
X13683000Y-8222000D03*
X13683000Y-7714000D03*
X13683000Y-6698000D03*
X13683000Y-6444000D03*
X13683000Y-6190000D03*
X13683000Y-5936000D03*
X13683000Y-5682000D03*
X13683000Y-5428000D03*
X13683000Y-11778000D03*
X13683000Y-12286000D03*
X13683000Y-13302000D03*
X13683000Y-14572000D03*
X13683000Y-14318000D03*
X13683000Y-14064000D03*
X13683000Y-13810000D03*
X13683000Y-13556000D03*
X13937000Y-5428000D03*
X13937000Y-5682000D03*
X13937000Y-5936000D03*
X13937000Y-6190000D03*
X13937000Y-6444000D03*
X13937000Y-6698000D03*
X13937000Y-7714000D03*
X13937000Y-8222000D03*
X13937000Y-13556000D03*
X13937000Y-13810000D03*
X13937000Y-14064000D03*
X13937000Y-14318000D03*
X13937000Y-14572000D03*
X13937000Y-13302000D03*
X13937000Y-12286000D03*
X13937000Y-11778000D03*
X14191000Y-8222000D03*
X14191000Y-7714000D03*
X14191000Y-6698000D03*
X14191000Y-6444000D03*
X14191000Y-6190000D03*
X14191000Y-5936000D03*
X14191000Y-5682000D03*
X14191000Y-5428000D03*
X14191000Y-11778000D03*
X14191000Y-12286000D03*
X14191000Y-13302000D03*
X14191000Y-14572000D03*
X14191000Y-14318000D03*
X14191000Y-14064000D03*
X14191000Y-13810000D03*
X14191000Y-13556000D03*
X14445000Y-8222000D03*
X14445000Y-7714000D03*
X14445000Y-6698000D03*
X14445000Y-6444000D03*
X14445000Y-6190000D03*
X14445000Y-5936000D03*
X14445000Y-5682000D03*
X14445000Y-5428000D03*
X14445000Y-11778000D03*
X14445000Y-12286000D03*
X14445000Y-13302000D03*
X14445000Y-14572000D03*
X14445000Y-14318000D03*
X14445000Y-14064000D03*
X14445000Y-13810000D03*
X14445000Y-13556000D03*
X14699000Y-5428000D03*
X14699000Y-5682000D03*
X14699000Y-5936000D03*
X14699000Y-6190000D03*
X14699000Y-6444000D03*
X14699000Y-6698000D03*
X14699000Y-7714000D03*
X14699000Y-8222000D03*
X14699000Y-13556000D03*
X14699000Y-13810000D03*
X14699000Y-14064000D03*
X14699000Y-14318000D03*
X14699000Y-14572000D03*
X14699000Y-13302000D03*
X14699000Y-12286000D03*
X14699000Y-11778000D03*
D16*
X11016000Y-7841000D02*
X14572000Y-7841000D01*
X14572000Y-8040000D02*
X14572000Y-7841000D01*
X10508000Y-8095000D02*
X10635000Y-8095000D01*
X10889000Y-7841000D02*
X11016000Y-7841000D01*
X10635000Y-8095000D02*
X10889000Y-7841000D01*
X13048000Y-8040000D02*
X13048000Y-7841000D01*
X13556000Y-8040000D02*
X13556000Y-7841000D01*
X13302000Y-8040000D02*
X13302000Y-7841000D01*
X14318000Y-8040000D02*
X14318000Y-7841000D01*
X14064000Y-8040000D02*
X14064000Y-7841000D01*
X13810000Y-8040000D02*
X13810000Y-7841000D01*
X12032000Y-8040000D02*
X12032000Y-7841000D01*
X12286000Y-8040000D02*
X12286000Y-7841000D01*
X12794000Y-8040000D02*
X12794000Y-7841000D01*
X12540000Y-8040000D02*
X12540000Y-7841000D01*
X11524000Y-8040000D02*
X11524000Y-7841000D01*
X11778000Y-8040000D02*
X11778000Y-7841000D01*
X11270000Y-8040000D02*
X11270000Y-7841000D01*
X11016000Y-8040000D02*
X11016000Y-7841000D01*
X12794000Y-12159000D02*
X13048000Y-12159000D01*
X13048000Y-12159000D02*
X12971800Y-12159000D01*
X13048000Y-12159000D02*
X13302000Y-12159000D01*
X13048000Y-11960000D02*
X13048000Y-12159000D01*
X13556000Y-11960000D02*
X13556000Y-12159000D01*
X13556000Y-12159000D02*
X13810000Y-12159000D01*
X13556000Y-12159000D02*
X13479800Y-12159000D01*
X13302000Y-12159000D02*
X13225800Y-12159000D01*
X13302000Y-12159000D02*
X13556000Y-12159000D01*
X13302000Y-11960000D02*
X13302000Y-12159000D01*
X14318000Y-11960000D02*
X14318000Y-12159000D01*
X14318000Y-12159000D02*
X14572000Y-12159000D01*
X14318000Y-12159000D02*
X14241800Y-12159000D01*
X14572000Y-12159000D02*
X14495800Y-12159000D01*
X14572000Y-11960000D02*
X14572000Y-12159000D01*
X14064000Y-11960000D02*
X14064000Y-12159000D01*
X14064000Y-12159000D02*
X14318000Y-12159000D01*
X14064000Y-12159000D02*
X13987800Y-12159000D01*
X13810000Y-12159000D02*
X13733800Y-12159000D01*
X13810000Y-12159000D02*
X14064000Y-12159000D01*
X13810000Y-11960000D02*
X13810000Y-12159000D01*
X12032000Y-11960000D02*
X12032000Y-12159000D01*
X12032000Y-12159000D02*
X12286000Y-12159000D01*
X12032000Y-12159000D02*
X11955800Y-12159000D01*
X12286000Y-12159000D02*
X12209800Y-12159000D01*
X12286000Y-12159000D02*
X12540000Y-12159000D01*
X12286000Y-11960000D02*
X12286000Y-12159000D01*
X12794000Y-11960000D02*
X12794000Y-12159000D01*
X12794000Y-12159000D02*
X13048000Y-12159000D01*
X12794000Y-12159000D02*
X12717800Y-12159000D01*
X12540000Y-12159000D02*
X12463800Y-12159000D01*
X12540000Y-12159000D02*
X12794000Y-12159000D01*
X12540000Y-11960000D02*
X12540000Y-12159000D01*
X11524000Y-11960000D02*
X11524000Y-12159000D01*
X11524000Y-12159000D02*
X11778000Y-12159000D01*
X11524000Y-12159000D02*
X11447800Y-12159000D01*
X11778000Y-12159000D02*
X11701800Y-12159000D01*
X11778000Y-12159000D02*
X12032000Y-12159000D01*
X11778000Y-11960000D02*
X11778000Y-12159000D01*
X11270000Y-11960000D02*
X11270000Y-12159000D01*
X11270000Y-12159000D02*
X11524000Y-12159000D01*
X11270000Y-12159000D02*
X11193800Y-12159000D01*
X11016000Y-12159000D02*
X10939800Y-12159000D01*
X10939800Y-12159000D02*
X10685800Y-11905000D01*
X10685800Y-11905000D02*
X10508000Y-11905000D01*
X11016000Y-12159000D02*
X11270000Y-12159000D01*
X11016000Y-11960000D02*
X11016000Y-12159000D01*
X14572000Y-5610000D02*
X14318000Y-5610000D01*
X10508000Y-6063000D02*
X10952500Y-5618500D01*
X10952500Y-5618500D02*
X11007500Y-5618500D01*
X11007500Y-5618500D02*
X11016000Y-5610000D01*
X13048000Y-5610000D02*
X12794000Y-5610000D01*
X13302000Y-5610000D02*
X13048000Y-5610000D01*
X13810000Y-5610000D02*
X13556000Y-5610000D01*
X13556000Y-5610000D02*
X13302000Y-5610000D01*
X14318000Y-5610000D02*
X14064000Y-5610000D01*
X14064000Y-5610000D02*
X13810000Y-5610000D01*
X12286000Y-5610000D02*
X12032000Y-5610000D01*
X12540000Y-5610000D02*
X12286000Y-5610000D01*
X13048000Y-5610000D02*
X12794000Y-5610000D01*
X12794000Y-5610000D02*
X12540000Y-5610000D01*
X11778000Y-5610000D02*
X11524000Y-5610000D01*
X12032000Y-5610000D02*
X11778000Y-5610000D01*
X11524000Y-5610000D02*
X11270000Y-5610000D01*
X11270000Y-5610000D02*
X11016000Y-5610000D01*
X11016000Y-5500000D02*
X11071000Y-5500000D01*
X11071000Y-5500000D02*
X11143000Y-5428000D01*
X11143000Y-5682000D02*
X11071000Y-5754000D01*
X11071000Y-5754000D02*
X11016000Y-5754000D01*
X11016000Y-6008000D02*
X11071000Y-6008000D01*
X11071000Y-6008000D02*
X11143000Y-5936000D01*
X11143000Y-6190000D02*
X11071000Y-6262000D01*
X11071000Y-6262000D02*
X11016000Y-6262000D01*
X11016000Y-6516000D02*
X11071000Y-6516000D01*
X11071000Y-6516000D02*
X11143000Y-6444000D01*
X11143000Y-6698000D02*
X11071000Y-6770000D01*
X11071000Y-6770000D02*
X11016000Y-6770000D01*
X11016000Y-8150000D02*
X11071000Y-8150000D01*
X11071000Y-8150000D02*
X11143000Y-8222000D01*
X11143000Y-7714000D02*
X11071000Y-7642000D01*
X11071000Y-7642000D02*
X11016000Y-7642000D01*
X11016000Y-8349000D02*
X11016000Y-8150000D01*
X11016000Y-8603000D02*
X11016000Y-8349000D01*
X11016000Y-8857000D02*
X11016000Y-8603000D01*
X11016000Y-9111000D02*
X11016000Y-8857000D01*
X11016000Y-9365000D02*
X11016000Y-9111000D01*
X11016000Y-9619000D02*
X11016000Y-9365000D01*
X14318000Y-6118000D02*
X14572000Y-6118000D01*
X11016000Y-6118000D02*
X10961000Y-6118000D01*
X10961000Y-6118000D02*
X10508000Y-6571000D01*
X12794000Y-6118000D02*
X13048000Y-6118000D01*
X13048000Y-6118000D02*
X13302000Y-6118000D01*
X13556000Y-6118000D02*
X13810000Y-6118000D01*
X13302000Y-6118000D02*
X13556000Y-6118000D01*
X14064000Y-6118000D02*
X14318000Y-6118000D01*
X13810000Y-6118000D02*
X14064000Y-6118000D01*
X12032000Y-6118000D02*
X12286000Y-6118000D01*
X12286000Y-6118000D02*
X12540000Y-6118000D01*
X12794000Y-6118000D02*
X13048000Y-6118000D01*
X12540000Y-6118000D02*
X12794000Y-6118000D01*
X11524000Y-6118000D02*
X11778000Y-6118000D01*
X11778000Y-6118000D02*
X12032000Y-6118000D01*
X11270000Y-6118000D02*
X11524000Y-6118000D01*
X11016000Y-6118000D02*
X11270000Y-6118000D01*
X14318000Y-6372000D02*
X14572000Y-6372000D01*
X11016000Y-6372000D02*
X10961000Y-6372000D01*
X10961000Y-6372000D02*
X10508000Y-6825000D01*
X12794000Y-6372000D02*
X13048000Y-6372000D01*
X13048000Y-6372000D02*
X13302000Y-6372000D01*
X13556000Y-6372000D02*
X13810000Y-6372000D01*
X13302000Y-6372000D02*
X13556000Y-6372000D01*
X14064000Y-6372000D02*
X14318000Y-6372000D01*
X13810000Y-6372000D02*
X14064000Y-6372000D01*
X12032000Y-6372000D02*
X12286000Y-6372000D01*
X12286000Y-6372000D02*
X12540000Y-6372000D01*
X12794000Y-6372000D02*
X13048000Y-6372000D01*
X12540000Y-6372000D02*
X12794000Y-6372000D01*
X11524000Y-6372000D02*
X11778000Y-6372000D01*
X11778000Y-6372000D02*
X12032000Y-6372000D01*
X11270000Y-6372000D02*
X11524000Y-6372000D01*
X11016000Y-6372000D02*
X11270000Y-6372000D01*
X14318000Y-6626000D02*
X14572000Y-6626000D01*
X11016000Y-6626000D02*
X10961000Y-6626000D01*
X10961000Y-6626000D02*
X10508000Y-7079000D01*
X12794000Y-6626000D02*
X13048000Y-6626000D01*
X13048000Y-6626000D02*
X13302000Y-6626000D01*
X13556000Y-6626000D02*
X13810000Y-6626000D01*
X13302000Y-6626000D02*
X13556000Y-6626000D01*
X14064000Y-6626000D02*
X14318000Y-6626000D01*
X13810000Y-6626000D02*
X14064000Y-6626000D01*
X12032000Y-6626000D02*
X12286000Y-6626000D01*
X12286000Y-6626000D02*
X12540000Y-6626000D01*
X12794000Y-6626000D02*
X13048000Y-6626000D01*
X12540000Y-6626000D02*
X12794000Y-6626000D01*
X11524000Y-6626000D02*
X11778000Y-6626000D01*
X11778000Y-6626000D02*
X12032000Y-6626000D01*
X11270000Y-6626000D02*
X11524000Y-6626000D01*
X11016000Y-6626000D02*
X11270000Y-6626000D01*
X14318000Y-6880000D02*
X14572000Y-6880000D01*
X11016000Y-6880000D02*
X10961000Y-6880000D01*
X10961000Y-6880000D02*
X10508000Y-7333000D01*
X12794000Y-6880000D02*
X13048000Y-6880000D01*
X13048000Y-6880000D02*
X13302000Y-6880000D01*
X13556000Y-6880000D02*
X13810000Y-6880000D01*
X13302000Y-6880000D02*
X13556000Y-6880000D01*
X14064000Y-6880000D02*
X14318000Y-6880000D01*
X13810000Y-6880000D02*
X14064000Y-6880000D01*
X12032000Y-6880000D02*
X12286000Y-6880000D01*
X12286000Y-6880000D02*
X12540000Y-6880000D01*
X12794000Y-6880000D02*
X13048000Y-6880000D01*
X12540000Y-6880000D02*
X12794000Y-6880000D01*
X11524000Y-6880000D02*
X11778000Y-6880000D01*
X11778000Y-6880000D02*
X12032000Y-6880000D01*
X11270000Y-6880000D02*
X11524000Y-6880000D01*
X11016000Y-6880000D02*
X11270000Y-6880000D01*
X14572000Y-7333000D02*
X11016000Y-7333000D01*
X14572000Y-7532000D02*
X14572000Y-7333000D01*
X11016000Y-7333000D02*
X10952500Y-7333000D01*
X10952500Y-7333000D02*
X10508000Y-7777500D01*
X10508000Y-7777500D02*
X10508000Y-7841000D01*
X13048000Y-7532000D02*
X13048000Y-7333000D01*
X13556000Y-7532000D02*
X13556000Y-7333000D01*
X13302000Y-7532000D02*
X13302000Y-7333000D01*
X14318000Y-7532000D02*
X14318000Y-7333000D01*
X14064000Y-7532000D02*
X14064000Y-7333000D01*
X13810000Y-7532000D02*
X13810000Y-7333000D01*
X12032000Y-7532000D02*
X12032000Y-7333000D01*
X12286000Y-7532000D02*
X12286000Y-7333000D01*
X12794000Y-7532000D02*
X12794000Y-7333000D01*
X12540000Y-7532000D02*
X12540000Y-7333000D01*
X11524000Y-7532000D02*
X11524000Y-7333000D01*
X11778000Y-7532000D02*
X11778000Y-7333000D01*
X11270000Y-7532000D02*
X11270000Y-7333000D01*
X11016000Y-7532000D02*
X11016000Y-7333000D01*
X12794000Y-12667000D02*
X13048000Y-12667000D01*
X13048000Y-12667000D02*
X13302000Y-12667000D01*
X13048000Y-12667000D02*
X13048000Y-12468000D01*
X13556000Y-12667000D02*
X13556000Y-12468000D01*
X13556000Y-12667000D02*
X13810000Y-12667000D01*
X13302000Y-12667000D02*
X13556000Y-12667000D01*
X13302000Y-12667000D02*
X13302000Y-12468000D01*
X14318000Y-12667000D02*
X14318000Y-12468000D01*
X14318000Y-12667000D02*
X14572000Y-12667000D01*
X14572000Y-12667000D02*
X14572000Y-12468000D01*
X14064000Y-12667000D02*
X14064000Y-12468000D01*
X14064000Y-12667000D02*
X14318000Y-12667000D01*
X13810000Y-12667000D02*
X14064000Y-12667000D01*
X13810000Y-12667000D02*
X13810000Y-12468000D01*
X12032000Y-12667000D02*
X12032000Y-12468000D01*
X12032000Y-12667000D02*
X12286000Y-12667000D01*
X12286000Y-12667000D02*
X12540000Y-12667000D01*
X12286000Y-12667000D02*
X12286000Y-12468000D01*
X12794000Y-12667000D02*
X12794000Y-12468000D01*
X12794000Y-12667000D02*
X13048000Y-12667000D01*
X12540000Y-12667000D02*
X12794000Y-12667000D01*
X12540000Y-12667000D02*
X12540000Y-12468000D01*
X11524000Y-12667000D02*
X11524000Y-12468000D01*
X11524000Y-12667000D02*
X11778000Y-12667000D01*
X11778000Y-12667000D02*
X12032000Y-12667000D01*
X11778000Y-12667000D02*
X11778000Y-12468000D01*
X11270000Y-12667000D02*
X11270000Y-12468000D01*
X11270000Y-12667000D02*
X11524000Y-12667000D01*
X11016000Y-12667000D02*
X10508000Y-12159000D01*
X11016000Y-12667000D02*
X11270000Y-12667000D01*
X11016000Y-12667000D02*
X11016000Y-12468000D01*
X11016000Y-13484000D02*
X11071000Y-13484000D01*
X11071000Y-13484000D02*
X11143000Y-13556000D01*
X11143000Y-13810000D02*
X11071000Y-13738000D01*
X11071000Y-13738000D02*
X11016000Y-13738000D01*
X11016000Y-14246000D02*
X11071000Y-14246000D01*
X11071000Y-14246000D02*
X11143000Y-14318000D01*
X11143000Y-14572000D02*
X11071000Y-14500000D01*
X11071000Y-14500000D02*
X11016000Y-14500000D01*
X11143000Y-13302000D02*
X11071000Y-13230000D01*
X11071000Y-13230000D02*
X11016000Y-13230000D01*
X11016000Y-11850000D02*
X11071000Y-11850000D01*
X11071000Y-11850000D02*
X11143000Y-11778000D01*
X11143000Y-12286000D02*
X11071000Y-12358000D01*
X11071000Y-12358000D02*
X11016000Y-12358000D01*
X11016000Y-11651000D02*
X11016000Y-11850000D01*
X11016000Y-11397000D02*
X11016000Y-11651000D01*
X11016000Y-11143000D02*
X11016000Y-11397000D01*
X11016000Y-10889000D02*
X11016000Y-11143000D01*
X11016000Y-10635000D02*
X11016000Y-10889000D01*
X11016000Y-10381000D02*
X11016000Y-10635000D01*
X11016000Y-13992000D02*
X11071000Y-13992000D01*
X11071000Y-13992000D02*
X11143000Y-14064000D01*
X11524000Y-13120000D02*
X11778000Y-13120000D01*
X12794000Y-13120000D02*
X13048000Y-13120000D01*
X13048000Y-13120000D02*
X13302000Y-13120000D01*
X13048000Y-13120000D02*
X13048000Y-13124200D01*
X13556000Y-13120000D02*
X13556000Y-13124200D01*
X13556000Y-13120000D02*
X13810000Y-13120000D01*
X13302000Y-13120000D02*
X13556000Y-13120000D01*
X13302000Y-13120000D02*
X13302000Y-13124200D01*
X14318000Y-13120000D02*
X14318000Y-13124200D01*
X14318000Y-13120000D02*
X14572000Y-13120000D01*
X14572000Y-13120000D02*
X14572000Y-13124200D01*
X14064000Y-13120000D02*
X14064000Y-13124200D01*
X14064000Y-13120000D02*
X14318000Y-13120000D01*
X13810000Y-13120000D02*
X14064000Y-13120000D01*
X13810000Y-13120000D02*
X13810000Y-13124200D01*
X12032000Y-13120000D02*
X12032000Y-13124200D01*
X12032000Y-13120000D02*
X12286000Y-13120000D01*
X12286000Y-13120000D02*
X12540000Y-13120000D01*
X12286000Y-13120000D02*
X12286000Y-13124200D01*
X12794000Y-13120000D02*
X12794000Y-13124200D01*
X12794000Y-13120000D02*
X13048000Y-13120000D01*
X12540000Y-13120000D02*
X12794000Y-13120000D01*
X12540000Y-13120000D02*
X12540000Y-13124200D01*
X11778000Y-13120000D02*
X12032000Y-13120000D01*
X11778000Y-13120000D02*
X11778000Y-13124200D01*
X11270000Y-13120000D02*
X11524000Y-13120000D01*
X11016000Y-13120000D02*
X11270000Y-13120000D01*
X11016000Y-13120000D02*
X11016000Y-13124200D01*
X10558800Y-12667000D02*
X10508000Y-12667000D01*
X11016000Y-13124200D02*
X10558800Y-12667000D01*
X12794000Y-13374000D02*
X13048000Y-13374000D01*
X13048000Y-13374000D02*
X13302000Y-13374000D01*
X13048000Y-13374000D02*
X12993000Y-13374000D01*
X13556000Y-13374000D02*
X13501000Y-13374000D01*
X13556000Y-13374000D02*
X13810000Y-13374000D01*
X13302000Y-13374000D02*
X13556000Y-13374000D01*
X13302000Y-13374000D02*
X13247000Y-13374000D01*
X14318000Y-13374000D02*
X14263000Y-13374000D01*
X14318000Y-13374000D02*
X14572000Y-13374000D01*
X14572000Y-13374000D02*
X14517000Y-13374000D01*
X14064000Y-13374000D02*
X14009000Y-13374000D01*
X14064000Y-13374000D02*
X14318000Y-13374000D01*
X13810000Y-13374000D02*
X14064000Y-13374000D01*
X13810000Y-13374000D02*
X13755000Y-13374000D01*
X12032000Y-13374000D02*
X11977000Y-13374000D01*
X12032000Y-13374000D02*
X12286000Y-13374000D01*
X12286000Y-13374000D02*
X12540000Y-13374000D01*
X12286000Y-13374000D02*
X12231000Y-13374000D01*
X12794000Y-13374000D02*
X12739000Y-13374000D01*
X12794000Y-13374000D02*
X13048000Y-13374000D01*
X12540000Y-13374000D02*
X12794000Y-13374000D01*
X12540000Y-13374000D02*
X12485000Y-13374000D01*
X11524000Y-13374000D02*
X11469000Y-13374000D01*
X11524000Y-13374000D02*
X11778000Y-13374000D01*
X11778000Y-13374000D02*
X12032000Y-13374000D01*
X11778000Y-13374000D02*
X11723000Y-13374000D01*
X11270000Y-13374000D02*
X11215000Y-13374000D01*
X11270000Y-13374000D02*
X11524000Y-13374000D01*
X11016000Y-13374000D02*
X11270000Y-13374000D01*
X11016000Y-13374000D02*
X10961000Y-13374000D01*
X10961000Y-13374000D02*
X10889000Y-13302000D01*
X10889000Y-13302000D02*
X10889000Y-13302000D01*
X10889000Y-13302000D02*
X10508000Y-12921000D01*
X10508000Y-12921000D02*
X10508000Y-12921000D01*
X12794000Y-13628000D02*
X13048000Y-13628000D01*
X13048000Y-13628000D02*
X13302000Y-13628000D01*
X13048000Y-13628000D02*
X12993000Y-13628000D01*
X13556000Y-13628000D02*
X13501000Y-13628000D01*
X13556000Y-13628000D02*
X13810000Y-13628000D01*
X13302000Y-13628000D02*
X13556000Y-13628000D01*
X13302000Y-13628000D02*
X13247000Y-13628000D01*
X14318000Y-13628000D02*
X14263000Y-13628000D01*
X14318000Y-13628000D02*
X14572000Y-13628000D01*
X14572000Y-13628000D02*
X14517000Y-13628000D01*
X14064000Y-13628000D02*
X14009000Y-13628000D01*
X14064000Y-13628000D02*
X14318000Y-13628000D01*
X13810000Y-13628000D02*
X14064000Y-13628000D01*
X13810000Y-13628000D02*
X13755000Y-13628000D01*
X12032000Y-13628000D02*
X11977000Y-13628000D01*
X12032000Y-13628000D02*
X12286000Y-13628000D01*
X12286000Y-13628000D02*
X12540000Y-13628000D01*
X12286000Y-13628000D02*
X12231000Y-13628000D01*
X12794000Y-13628000D02*
X12739000Y-13628000D01*
X12794000Y-13628000D02*
X13048000Y-13628000D01*
X12540000Y-13628000D02*
X12794000Y-13628000D01*
X12540000Y-13628000D02*
X12485000Y-13628000D01*
X11524000Y-13628000D02*
X11469000Y-13628000D01*
X11524000Y-13628000D02*
X11778000Y-13628000D01*
X11778000Y-13628000D02*
X12032000Y-13628000D01*
X11778000Y-13628000D02*
X11723000Y-13628000D01*
X11270000Y-13628000D02*
X11215000Y-13628000D01*
X11270000Y-13628000D02*
X11524000Y-13628000D01*
X11016000Y-13628000D02*
X11270000Y-13628000D01*
X11016000Y-13628000D02*
X10961000Y-13628000D01*
X10961000Y-13628000D02*
X10762000Y-13429000D01*
X10762000Y-13429000D02*
X10508000Y-13175000D01*
X12794000Y-13882000D02*
X13048000Y-13882000D01*
X13048000Y-13882000D02*
X13302000Y-13882000D01*
X13048000Y-13882000D02*
X12993000Y-13882000D01*
X13556000Y-13882000D02*
X13501000Y-13882000D01*
X13556000Y-13882000D02*
X13810000Y-13882000D01*
X13302000Y-13882000D02*
X13556000Y-13882000D01*
X13302000Y-13882000D02*
X13247000Y-13882000D01*
X14318000Y-13882000D02*
X14263000Y-13882000D01*
X14318000Y-13882000D02*
X14572000Y-13882000D01*
X14572000Y-13882000D02*
X14517000Y-13882000D01*
X14064000Y-13882000D02*
X14009000Y-13882000D01*
X14064000Y-13882000D02*
X14318000Y-13882000D01*
X13810000Y-13882000D02*
X14064000Y-13882000D01*
X13810000Y-13882000D02*
X13755000Y-13882000D01*
X12032000Y-13882000D02*
X11977000Y-13882000D01*
X12032000Y-13882000D02*
X12286000Y-13882000D01*
X12286000Y-13882000D02*
X12540000Y-13882000D01*
X12286000Y-13882000D02*
X12231000Y-13882000D01*
X12794000Y-13882000D02*
X12739000Y-13882000D01*
X12794000Y-13882000D02*
X13048000Y-13882000D01*
X12540000Y-13882000D02*
X12794000Y-13882000D01*
X12540000Y-13882000D02*
X12485000Y-13882000D01*
X11524000Y-13882000D02*
X11469000Y-13882000D01*
X11524000Y-13882000D02*
X11778000Y-13882000D01*
X11778000Y-13882000D02*
X12032000Y-13882000D01*
X11778000Y-13882000D02*
X11723000Y-13882000D01*
X11270000Y-13882000D02*
X11215000Y-13882000D01*
X11270000Y-13882000D02*
X11524000Y-13882000D01*
X11016000Y-13882000D02*
X11270000Y-13882000D01*
X11016000Y-13882000D02*
X10961000Y-13882000D01*
X10961000Y-13882000D02*
X10508000Y-13429000D01*
X12794000Y-14390000D02*
X13048000Y-14390000D01*
X13048000Y-14390000D02*
X13302000Y-14390000D01*
X13048000Y-14390000D02*
X12993000Y-14390000D01*
X13556000Y-14390000D02*
X13501000Y-14390000D01*
X13556000Y-14390000D02*
X13810000Y-14390000D01*
X13302000Y-14390000D02*
X13556000Y-14390000D01*
X13302000Y-14390000D02*
X13247000Y-14390000D01*
X14318000Y-14390000D02*
X14263000Y-14390000D01*
X14318000Y-14390000D02*
X14572000Y-14390000D01*
X14572000Y-14390000D02*
X14517000Y-14390000D01*
X14064000Y-14390000D02*
X14009000Y-14390000D01*
X14064000Y-14390000D02*
X14318000Y-14390000D01*
X13810000Y-14390000D02*
X14064000Y-14390000D01*
X13810000Y-14390000D02*
X13755000Y-14390000D01*
X12032000Y-14390000D02*
X11977000Y-14390000D01*
X12032000Y-14390000D02*
X12286000Y-14390000D01*
X12286000Y-14390000D02*
X12540000Y-14390000D01*
X12286000Y-14390000D02*
X12231000Y-14390000D01*
X12794000Y-14390000D02*
X12739000Y-14390000D01*
X12794000Y-14390000D02*
X13048000Y-14390000D01*
X12540000Y-14390000D02*
X12794000Y-14390000D01*
X12540000Y-14390000D02*
X12485000Y-14390000D01*
X11524000Y-14390000D02*
X11469000Y-14390000D01*
X11524000Y-14390000D02*
X11778000Y-14390000D01*
X11778000Y-14390000D02*
X12032000Y-14390000D01*
X11778000Y-14390000D02*
X11723000Y-14390000D01*
X11270000Y-14390000D02*
X11215000Y-14390000D01*
X11270000Y-14390000D02*
X11524000Y-14390000D01*
X11016000Y-14390000D02*
X11270000Y-14390000D01*
X11016000Y-14390000D02*
X10961000Y-14390000D01*
X10961000Y-14390000D02*
X10508000Y-13937000D01*
X11270000Y-9619000D02*
X11270000Y-9365000D01*
X11270000Y-9365000D02*
X11270000Y-9111000D01*
X11270000Y-9111000D02*
X11270000Y-8857000D01*
X11270000Y-8857000D02*
X11270000Y-8603000D01*
X11270000Y-8603000D02*
X11270000Y-8349000D01*
X11270000Y-8349000D02*
X11270000Y-8150000D01*
X11325000Y-7642000D02*
X11270000Y-7642000D01*
X11397000Y-7714000D02*
X11325000Y-7642000D01*
X11325000Y-8150000D02*
X11397000Y-8222000D01*
X11270000Y-8150000D02*
X11325000Y-8150000D01*
X11325000Y-6770000D02*
X11270000Y-6770000D01*
X11397000Y-6698000D02*
X11325000Y-6770000D01*
X11325000Y-6516000D02*
X11397000Y-6444000D01*
X11270000Y-6516000D02*
X11325000Y-6516000D01*
X11325000Y-6262000D02*
X11270000Y-6262000D01*
X11397000Y-6190000D02*
X11325000Y-6262000D01*
X11325000Y-5754000D02*
X11270000Y-5754000D01*
X11397000Y-5682000D02*
X11325000Y-5754000D01*
X11325000Y-5500000D02*
X11397000Y-5428000D01*
X11270000Y-5500000D02*
X11325000Y-5500000D01*
X11325000Y-6008000D02*
X11397000Y-5936000D01*
X11270000Y-6008000D02*
X11325000Y-6008000D01*
X11270000Y-10381000D02*
X11270000Y-10635000D01*
X11270000Y-10635000D02*
X11270000Y-10889000D01*
X11270000Y-10889000D02*
X11270000Y-11143000D01*
X11270000Y-11143000D02*
X11270000Y-11397000D01*
X11270000Y-11397000D02*
X11270000Y-11651000D01*
X11270000Y-11651000D02*
X11270000Y-11850000D01*
X11325000Y-12358000D02*
X11270000Y-12358000D01*
X11397000Y-12286000D02*
X11325000Y-12358000D01*
X11325000Y-11850000D02*
X11397000Y-11778000D01*
X11270000Y-11850000D02*
X11325000Y-11850000D01*
X11325000Y-13230000D02*
X11270000Y-13230000D01*
X11397000Y-13302000D02*
X11325000Y-13230000D01*
X11325000Y-14500000D02*
X11270000Y-14500000D01*
X11397000Y-14572000D02*
X11325000Y-14500000D01*
X11325000Y-14246000D02*
X11397000Y-14318000D01*
X11270000Y-14246000D02*
X11325000Y-14246000D01*
X11325000Y-13738000D02*
X11270000Y-13738000D01*
X11397000Y-13810000D02*
X11325000Y-13738000D01*
X11325000Y-13484000D02*
X11397000Y-13556000D01*
X11270000Y-13484000D02*
X11325000Y-13484000D01*
X11325000Y-13992000D02*
X11397000Y-14064000D01*
X11270000Y-13992000D02*
X11325000Y-13992000D01*
X11524000Y-9619000D02*
X11524000Y-9365000D01*
X11524000Y-9365000D02*
X11524000Y-9111000D01*
X11524000Y-9111000D02*
X11524000Y-8857000D01*
X11524000Y-8857000D02*
X11524000Y-8603000D01*
X11524000Y-8603000D02*
X11524000Y-8349000D01*
X11524000Y-8349000D02*
X11524000Y-8150000D01*
X11579000Y-7642000D02*
X11524000Y-7642000D01*
X11651000Y-7714000D02*
X11579000Y-7642000D01*
X11579000Y-8150000D02*
X11651000Y-8222000D01*
X11524000Y-8150000D02*
X11579000Y-8150000D01*
X11579000Y-6770000D02*
X11524000Y-6770000D01*
X11651000Y-6698000D02*
X11579000Y-6770000D01*
X11579000Y-6516000D02*
X11651000Y-6444000D01*
X11524000Y-6516000D02*
X11579000Y-6516000D01*
X11579000Y-6262000D02*
X11524000Y-6262000D01*
X11651000Y-6190000D02*
X11579000Y-6262000D01*
X11579000Y-5754000D02*
X11524000Y-5754000D01*
X11651000Y-5682000D02*
X11579000Y-5754000D01*
X11579000Y-5500000D02*
X11651000Y-5428000D01*
X11524000Y-5500000D02*
X11579000Y-5500000D01*
X11579000Y-6008000D02*
X11651000Y-5936000D01*
X11524000Y-6008000D02*
X11579000Y-6008000D01*
X11524000Y-10381000D02*
X11524000Y-10635000D01*
X11524000Y-10635000D02*
X11524000Y-10889000D01*
X11524000Y-10889000D02*
X11524000Y-11143000D01*
X11524000Y-11143000D02*
X11524000Y-11397000D01*
X11524000Y-11397000D02*
X11524000Y-11651000D01*
X11524000Y-11651000D02*
X11524000Y-11850000D01*
X11579000Y-12358000D02*
X11524000Y-12358000D01*
X11651000Y-12286000D02*
X11579000Y-12358000D01*
X11579000Y-11850000D02*
X11651000Y-11778000D01*
X11524000Y-11850000D02*
X11579000Y-11850000D01*
X11579000Y-13230000D02*
X11524000Y-13230000D01*
X11651000Y-13302000D02*
X11579000Y-13230000D01*
X11579000Y-14500000D02*
X11524000Y-14500000D01*
X11651000Y-14572000D02*
X11579000Y-14500000D01*
X11579000Y-14246000D02*
X11651000Y-14318000D01*
X11524000Y-14246000D02*
X11579000Y-14246000D01*
X11579000Y-13738000D02*
X11524000Y-13738000D01*
X11651000Y-13810000D02*
X11579000Y-13738000D01*
X11579000Y-13484000D02*
X11651000Y-13556000D01*
X11524000Y-13484000D02*
X11579000Y-13484000D01*
X11579000Y-13992000D02*
X11651000Y-14064000D01*
X11524000Y-13992000D02*
X11579000Y-13992000D01*
X11778000Y-5500000D02*
X11833000Y-5500000D01*
X11833000Y-5500000D02*
X11905000Y-5428000D01*
X11905000Y-5682000D02*
X11833000Y-5754000D01*
X11833000Y-5754000D02*
X11778000Y-5754000D01*
X11905000Y-6190000D02*
X11833000Y-6262000D01*
X11833000Y-6262000D02*
X11778000Y-6262000D01*
X11778000Y-6516000D02*
X11833000Y-6516000D01*
X11833000Y-6516000D02*
X11905000Y-6444000D01*
X11905000Y-6698000D02*
X11833000Y-6770000D01*
X11833000Y-6770000D02*
X11778000Y-6770000D01*
X11778000Y-8150000D02*
X11833000Y-8150000D01*
X11833000Y-8150000D02*
X11905000Y-8222000D01*
X11905000Y-7714000D02*
X11833000Y-7642000D01*
X11833000Y-7642000D02*
X11778000Y-7642000D01*
X11778000Y-8349000D02*
X11778000Y-8150000D01*
X11778000Y-8603000D02*
X11778000Y-8349000D01*
X11778000Y-8857000D02*
X11778000Y-8603000D01*
X11778000Y-9111000D02*
X11778000Y-8857000D01*
X11778000Y-9365000D02*
X11778000Y-9111000D01*
X11778000Y-9619000D02*
X11778000Y-9365000D01*
X11778000Y-6008000D02*
X11833000Y-6008000D01*
X11833000Y-6008000D02*
X11905000Y-5936000D01*
X11778000Y-13484000D02*
X11833000Y-13484000D01*
X11833000Y-13484000D02*
X11905000Y-13556000D01*
X11905000Y-13810000D02*
X11833000Y-13738000D01*
X11833000Y-13738000D02*
X11778000Y-13738000D01*
X11778000Y-14246000D02*
X11833000Y-14246000D01*
X11833000Y-14246000D02*
X11905000Y-14318000D01*
X11905000Y-14572000D02*
X11833000Y-14500000D01*
X11833000Y-14500000D02*
X11778000Y-14500000D01*
X11905000Y-13302000D02*
X11833000Y-13230000D01*
X11833000Y-13230000D02*
X11778000Y-13230000D01*
X11778000Y-11850000D02*
X11833000Y-11850000D01*
X11833000Y-11850000D02*
X11905000Y-11778000D01*
X11905000Y-12286000D02*
X11833000Y-12358000D01*
X11833000Y-12358000D02*
X11778000Y-12358000D01*
X11778000Y-11651000D02*
X11778000Y-11850000D01*
X11778000Y-11397000D02*
X11778000Y-11651000D01*
X11778000Y-11143000D02*
X11778000Y-11397000D01*
X11778000Y-10889000D02*
X11778000Y-11143000D01*
X11778000Y-10635000D02*
X11778000Y-10889000D01*
X11778000Y-10381000D02*
X11778000Y-10635000D01*
X11778000Y-13992000D02*
X11833000Y-13992000D01*
X11833000Y-13992000D02*
X11905000Y-14064000D01*
X12032000Y-9619000D02*
X12032000Y-9365000D01*
X12032000Y-9365000D02*
X12032000Y-9111000D01*
X12032000Y-9111000D02*
X12032000Y-8857000D01*
X12032000Y-8857000D02*
X12032000Y-8603000D01*
X12032000Y-8603000D02*
X12032000Y-8349000D01*
X12032000Y-8349000D02*
X12032000Y-8150000D01*
X12087000Y-7642000D02*
X12032000Y-7642000D01*
X12159000Y-7714000D02*
X12087000Y-7642000D01*
X12087000Y-8150000D02*
X12159000Y-8222000D01*
X12032000Y-8150000D02*
X12087000Y-8150000D01*
X12087000Y-6770000D02*
X12032000Y-6770000D01*
X12159000Y-6698000D02*
X12087000Y-6770000D01*
X12087000Y-6516000D02*
X12159000Y-6444000D01*
X12032000Y-6516000D02*
X12087000Y-6516000D01*
X12087000Y-6262000D02*
X12032000Y-6262000D01*
X12159000Y-6190000D02*
X12087000Y-6262000D01*
X12087000Y-5754000D02*
X12032000Y-5754000D01*
X12159000Y-5682000D02*
X12087000Y-5754000D01*
X12087000Y-5500000D02*
X12159000Y-5428000D01*
X12032000Y-5500000D02*
X12087000Y-5500000D01*
X12087000Y-6008000D02*
X12159000Y-5936000D01*
X12032000Y-6008000D02*
X12087000Y-6008000D01*
X12032000Y-10381000D02*
X12032000Y-10635000D01*
X12032000Y-10635000D02*
X12032000Y-10889000D01*
X12032000Y-10889000D02*
X12032000Y-11143000D01*
X12032000Y-11143000D02*
X12032000Y-11397000D01*
X12032000Y-11397000D02*
X12032000Y-11651000D01*
X12032000Y-11651000D02*
X12032000Y-11850000D01*
X12087000Y-12358000D02*
X12032000Y-12358000D01*
X12159000Y-12286000D02*
X12087000Y-12358000D01*
X12087000Y-11850000D02*
X12159000Y-11778000D01*
X12032000Y-11850000D02*
X12087000Y-11850000D01*
X12087000Y-13230000D02*
X12032000Y-13230000D01*
X12159000Y-13302000D02*
X12087000Y-13230000D01*
X12087000Y-14500000D02*
X12032000Y-14500000D01*
X12159000Y-14572000D02*
X12087000Y-14500000D01*
X12087000Y-14246000D02*
X12159000Y-14318000D01*
X12032000Y-14246000D02*
X12087000Y-14246000D01*
X12087000Y-13738000D02*
X12032000Y-13738000D01*
X12159000Y-13810000D02*
X12087000Y-13738000D01*
X12087000Y-13484000D02*
X12159000Y-13556000D01*
X12032000Y-13484000D02*
X12087000Y-13484000D01*
X12087000Y-13992000D02*
X12159000Y-14064000D01*
X12032000Y-13992000D02*
X12087000Y-13992000D01*
X12286000Y-5500000D02*
X12341000Y-5500000D01*
X12341000Y-5500000D02*
X12413000Y-5428000D01*
X12413000Y-5682000D02*
X12341000Y-5754000D01*
X12341000Y-5754000D02*
X12286000Y-5754000D01*
X12413000Y-6190000D02*
X12341000Y-6262000D01*
X12341000Y-6262000D02*
X12286000Y-6262000D01*
X12286000Y-6516000D02*
X12341000Y-6516000D01*
X12341000Y-6516000D02*
X12413000Y-6444000D01*
X12413000Y-6698000D02*
X12341000Y-6770000D01*
X12341000Y-6770000D02*
X12286000Y-6770000D01*
X12286000Y-8150000D02*
X12341000Y-8150000D01*
X12341000Y-8150000D02*
X12413000Y-8222000D01*
X12413000Y-7714000D02*
X12341000Y-7642000D01*
X12341000Y-7642000D02*
X12286000Y-7642000D01*
X12286000Y-8349000D02*
X12286000Y-8150000D01*
X12286000Y-8603000D02*
X12286000Y-8349000D01*
X12286000Y-8857000D02*
X12286000Y-8603000D01*
X12286000Y-9111000D02*
X12286000Y-8857000D01*
X12286000Y-9365000D02*
X12286000Y-9111000D01*
X12286000Y-9619000D02*
X12286000Y-9365000D01*
X12286000Y-6008000D02*
X12341000Y-6008000D01*
X12341000Y-6008000D02*
X12413000Y-5936000D01*
X12286000Y-13484000D02*
X12341000Y-13484000D01*
X12341000Y-13484000D02*
X12413000Y-13556000D01*
X12413000Y-13810000D02*
X12341000Y-13738000D01*
X12341000Y-13738000D02*
X12286000Y-13738000D01*
X12286000Y-14246000D02*
X12341000Y-14246000D01*
X12341000Y-14246000D02*
X12413000Y-14318000D01*
X12413000Y-14572000D02*
X12341000Y-14500000D01*
X12341000Y-14500000D02*
X12286000Y-14500000D01*
X12413000Y-13302000D02*
X12341000Y-13230000D01*
X12341000Y-13230000D02*
X12286000Y-13230000D01*
X12286000Y-11850000D02*
X12341000Y-11850000D01*
X12341000Y-11850000D02*
X12413000Y-11778000D01*
X12413000Y-12286000D02*
X12341000Y-12358000D01*
X12341000Y-12358000D02*
X12286000Y-12358000D01*
X12286000Y-11651000D02*
X12286000Y-11850000D01*
X12286000Y-11397000D02*
X12286000Y-11651000D01*
X12286000Y-11143000D02*
X12286000Y-11397000D01*
X12286000Y-10889000D02*
X12286000Y-11143000D01*
X12286000Y-10635000D02*
X12286000Y-10889000D01*
X12286000Y-10381000D02*
X12286000Y-10635000D01*
X12286000Y-13992000D02*
X12341000Y-13992000D01*
X12341000Y-13992000D02*
X12413000Y-14064000D01*
X12540000Y-5500000D02*
X12595000Y-5500000D01*
X12595000Y-5500000D02*
X12667000Y-5428000D01*
X12667000Y-5682000D02*
X12595000Y-5754000D01*
X12595000Y-5754000D02*
X12540000Y-5754000D01*
X12667000Y-6190000D02*
X12595000Y-6262000D01*
X12595000Y-6262000D02*
X12540000Y-6262000D01*
X12540000Y-6516000D02*
X12595000Y-6516000D01*
X12595000Y-6516000D02*
X12667000Y-6444000D01*
X12667000Y-6698000D02*
X12595000Y-6770000D01*
X12595000Y-6770000D02*
X12540000Y-6770000D01*
X12540000Y-8150000D02*
X12595000Y-8150000D01*
X12595000Y-8150000D02*
X12667000Y-8222000D01*
X12667000Y-7714000D02*
X12595000Y-7642000D01*
X12595000Y-7642000D02*
X12540000Y-7642000D01*
X12540000Y-8349000D02*
X12540000Y-8150000D01*
X12540000Y-8603000D02*
X12540000Y-8349000D01*
X12540000Y-8857000D02*
X12540000Y-8603000D01*
X12540000Y-9111000D02*
X12540000Y-8857000D01*
X12540000Y-9365000D02*
X12540000Y-9111000D01*
X12540000Y-9619000D02*
X12540000Y-9365000D01*
X12540000Y-6008000D02*
X12595000Y-6008000D01*
X12595000Y-6008000D02*
X12667000Y-5936000D01*
X12540000Y-13484000D02*
X12595000Y-13484000D01*
X12595000Y-13484000D02*
X12667000Y-13556000D01*
X12667000Y-13810000D02*
X12595000Y-13738000D01*
X12595000Y-13738000D02*
X12540000Y-13738000D01*
X12540000Y-14246000D02*
X12595000Y-14246000D01*
X12595000Y-14246000D02*
X12667000Y-14318000D01*
X12667000Y-14572000D02*
X12595000Y-14500000D01*
X12595000Y-14500000D02*
X12540000Y-14500000D01*
X12667000Y-13302000D02*
X12595000Y-13230000D01*
X12595000Y-13230000D02*
X12540000Y-13230000D01*
X12540000Y-11850000D02*
X12595000Y-11850000D01*
X12595000Y-11850000D02*
X12667000Y-11778000D01*
X12667000Y-12286000D02*
X12595000Y-12358000D01*
X12595000Y-12358000D02*
X12540000Y-12358000D01*
X12540000Y-11651000D02*
X12540000Y-11850000D01*
X12540000Y-11397000D02*
X12540000Y-11651000D01*
X12540000Y-11143000D02*
X12540000Y-11397000D01*
X12540000Y-10889000D02*
X12540000Y-11143000D01*
X12540000Y-10635000D02*
X12540000Y-10889000D01*
X12540000Y-10381000D02*
X12540000Y-10635000D01*
X12540000Y-13992000D02*
X12595000Y-13992000D01*
X12595000Y-13992000D02*
X12667000Y-14064000D01*
X12794000Y-9619000D02*
X12794000Y-9365000D01*
X12794000Y-9365000D02*
X12794000Y-9111000D01*
X12794000Y-9111000D02*
X12794000Y-8857000D01*
X12794000Y-8857000D02*
X12794000Y-8603000D01*
X12794000Y-8603000D02*
X12794000Y-8349000D01*
X12794000Y-8349000D02*
X12794000Y-8150000D01*
X12849000Y-7642000D02*
X12794000Y-7642000D01*
X12921000Y-7714000D02*
X12849000Y-7642000D01*
X12849000Y-8150000D02*
X12921000Y-8222000D01*
X12794000Y-8150000D02*
X12849000Y-8150000D01*
X12849000Y-6770000D02*
X12794000Y-6770000D01*
X12921000Y-6698000D02*
X12849000Y-6770000D01*
X12849000Y-6516000D02*
X12921000Y-6444000D01*
X12794000Y-6516000D02*
X12849000Y-6516000D01*
X12849000Y-6262000D02*
X12794000Y-6262000D01*
X12921000Y-6190000D02*
X12849000Y-6262000D01*
X12849000Y-5754000D02*
X12794000Y-5754000D01*
X12921000Y-5682000D02*
X12849000Y-5754000D01*
X12849000Y-5500000D02*
X12921000Y-5428000D01*
X12794000Y-5500000D02*
X12849000Y-5500000D01*
X12849000Y-6008000D02*
X12921000Y-5936000D01*
X12794000Y-6008000D02*
X12849000Y-6008000D01*
X12794000Y-10381000D02*
X12794000Y-10635000D01*
X12794000Y-10635000D02*
X12794000Y-10889000D01*
X12794000Y-10889000D02*
X12794000Y-11143000D01*
X12794000Y-11143000D02*
X12794000Y-11397000D01*
X12794000Y-11397000D02*
X12794000Y-11651000D01*
X12794000Y-11651000D02*
X12794000Y-11850000D01*
X12849000Y-12358000D02*
X12794000Y-12358000D01*
X12921000Y-12286000D02*
X12849000Y-12358000D01*
X12849000Y-11850000D02*
X12921000Y-11778000D01*
X12794000Y-11850000D02*
X12849000Y-11850000D01*
X12849000Y-13230000D02*
X12794000Y-13230000D01*
X12921000Y-13302000D02*
X12849000Y-13230000D01*
X12849000Y-14500000D02*
X12794000Y-14500000D01*
X12921000Y-14572000D02*
X12849000Y-14500000D01*
X12849000Y-14246000D02*
X12921000Y-14318000D01*
X12794000Y-14246000D02*
X12849000Y-14246000D01*
X12849000Y-13738000D02*
X12794000Y-13738000D01*
X12921000Y-13810000D02*
X12849000Y-13738000D01*
X12849000Y-13484000D02*
X12921000Y-13556000D01*
X12794000Y-13484000D02*
X12849000Y-13484000D01*
X12849000Y-13992000D02*
X12921000Y-14064000D01*
X12794000Y-13992000D02*
X12849000Y-13992000D01*
X13048000Y-5500000D02*
X13103000Y-5500000D01*
X13103000Y-5500000D02*
X13175000Y-5428000D01*
X13175000Y-5682000D02*
X13103000Y-5754000D01*
X13103000Y-5754000D02*
X13048000Y-5754000D01*
X13175000Y-6190000D02*
X13103000Y-6262000D01*
X13103000Y-6262000D02*
X13048000Y-6262000D01*
X13048000Y-6516000D02*
X13103000Y-6516000D01*
X13103000Y-6516000D02*
X13175000Y-6444000D01*
X13175000Y-6698000D02*
X13103000Y-6770000D01*
X13103000Y-6770000D02*
X13048000Y-6770000D01*
X13048000Y-8150000D02*
X13103000Y-8150000D01*
X13103000Y-8150000D02*
X13175000Y-8222000D01*
X13175000Y-7714000D02*
X13103000Y-7642000D01*
X13103000Y-7642000D02*
X13048000Y-7642000D01*
X13048000Y-8349000D02*
X13048000Y-8150000D01*
X13048000Y-8603000D02*
X13048000Y-8349000D01*
X13048000Y-8857000D02*
X13048000Y-8603000D01*
X13048000Y-9111000D02*
X13048000Y-8857000D01*
X13048000Y-9365000D02*
X13048000Y-9111000D01*
X13048000Y-9619000D02*
X13048000Y-9365000D01*
X13048000Y-6008000D02*
X13103000Y-6008000D01*
X13103000Y-6008000D02*
X13175000Y-5936000D01*
X13048000Y-13484000D02*
X13103000Y-13484000D01*
X13103000Y-13484000D02*
X13175000Y-13556000D01*
X13175000Y-13810000D02*
X13103000Y-13738000D01*
X13103000Y-13738000D02*
X13048000Y-13738000D01*
X13048000Y-14246000D02*
X13103000Y-14246000D01*
X13103000Y-14246000D02*
X13175000Y-14318000D01*
X13175000Y-14572000D02*
X13103000Y-14500000D01*
X13103000Y-14500000D02*
X13048000Y-14500000D01*
X13175000Y-13302000D02*
X13103000Y-13230000D01*
X13103000Y-13230000D02*
X13048000Y-13230000D01*
X13048000Y-11850000D02*
X13103000Y-11850000D01*
X13103000Y-11850000D02*
X13175000Y-11778000D01*
X13175000Y-12286000D02*
X13103000Y-12358000D01*
X13103000Y-12358000D02*
X13048000Y-12358000D01*
X13048000Y-11651000D02*
X13048000Y-11850000D01*
X13048000Y-11397000D02*
X13048000Y-11651000D01*
X13048000Y-11143000D02*
X13048000Y-11397000D01*
X13048000Y-10889000D02*
X13048000Y-11143000D01*
X13048000Y-10635000D02*
X13048000Y-10889000D01*
X13048000Y-10381000D02*
X13048000Y-10635000D01*
X13048000Y-13992000D02*
X13103000Y-13992000D01*
X13103000Y-13992000D02*
X13175000Y-14064000D01*
X13302000Y-5500000D02*
X13357000Y-5500000D01*
X13357000Y-5500000D02*
X13429000Y-5428000D01*
X13429000Y-5682000D02*
X13357000Y-5754000D01*
X13357000Y-5754000D02*
X13302000Y-5754000D01*
X13429000Y-6190000D02*
X13357000Y-6262000D01*
X13357000Y-6262000D02*
X13302000Y-6262000D01*
X13302000Y-6516000D02*
X13357000Y-6516000D01*
X13357000Y-6516000D02*
X13429000Y-6444000D01*
X13429000Y-6698000D02*
X13357000Y-6770000D01*
X13357000Y-6770000D02*
X13302000Y-6770000D01*
X13302000Y-8150000D02*
X13357000Y-8150000D01*
X13357000Y-8150000D02*
X13429000Y-8222000D01*
X13429000Y-7714000D02*
X13357000Y-7642000D01*
X13357000Y-7642000D02*
X13302000Y-7642000D01*
X13302000Y-8349000D02*
X13302000Y-8150000D01*
X13302000Y-8603000D02*
X13302000Y-8349000D01*
X13302000Y-8857000D02*
X13302000Y-8603000D01*
X13302000Y-9111000D02*
X13302000Y-8857000D01*
X13302000Y-9365000D02*
X13302000Y-9111000D01*
X13302000Y-9619000D02*
X13302000Y-9365000D01*
X13302000Y-6008000D02*
X13357000Y-6008000D01*
X13357000Y-6008000D02*
X13429000Y-5936000D01*
X13302000Y-13484000D02*
X13357000Y-13484000D01*
X13357000Y-13484000D02*
X13429000Y-13556000D01*
X13429000Y-13810000D02*
X13357000Y-13738000D01*
X13357000Y-13738000D02*
X13302000Y-13738000D01*
X13302000Y-14246000D02*
X13357000Y-14246000D01*
X13357000Y-14246000D02*
X13429000Y-14318000D01*
X13429000Y-14572000D02*
X13357000Y-14500000D01*
X13357000Y-14500000D02*
X13302000Y-14500000D01*
X13429000Y-13302000D02*
X13357000Y-13230000D01*
X13357000Y-13230000D02*
X13302000Y-13230000D01*
X13302000Y-11850000D02*
X13357000Y-11850000D01*
X13357000Y-11850000D02*
X13429000Y-11778000D01*
X13429000Y-12286000D02*
X13357000Y-12358000D01*
X13357000Y-12358000D02*
X13302000Y-12358000D01*
X13302000Y-11651000D02*
X13302000Y-11850000D01*
X13302000Y-11397000D02*
X13302000Y-11651000D01*
X13302000Y-11143000D02*
X13302000Y-11397000D01*
X13302000Y-10889000D02*
X13302000Y-11143000D01*
X13302000Y-10635000D02*
X13302000Y-10889000D01*
X13302000Y-10381000D02*
X13302000Y-10635000D01*
X13302000Y-13992000D02*
X13357000Y-13992000D01*
X13357000Y-13992000D02*
X13429000Y-14064000D01*
X13556000Y-9619000D02*
X13556000Y-9365000D01*
X13556000Y-9365000D02*
X13556000Y-9111000D01*
X13556000Y-9111000D02*
X13556000Y-8857000D01*
X13556000Y-8857000D02*
X13556000Y-8603000D01*
X13556000Y-8603000D02*
X13556000Y-8349000D01*
X13556000Y-8349000D02*
X13556000Y-8150000D01*
X13611000Y-7642000D02*
X13556000Y-7642000D01*
X13683000Y-7714000D02*
X13611000Y-7642000D01*
X13611000Y-8150000D02*
X13683000Y-8222000D01*
X13556000Y-8150000D02*
X13611000Y-8150000D01*
X13611000Y-6770000D02*
X13556000Y-6770000D01*
X13683000Y-6698000D02*
X13611000Y-6770000D01*
X13611000Y-6516000D02*
X13683000Y-6444000D01*
X13556000Y-6516000D02*
X13611000Y-6516000D01*
X13611000Y-6262000D02*
X13556000Y-6262000D01*
X13683000Y-6190000D02*
X13611000Y-6262000D01*
X13611000Y-5754000D02*
X13556000Y-5754000D01*
X13683000Y-5682000D02*
X13611000Y-5754000D01*
X13611000Y-5500000D02*
X13683000Y-5428000D01*
X13556000Y-5500000D02*
X13611000Y-5500000D01*
X13611000Y-6008000D02*
X13683000Y-5936000D01*
X13556000Y-6008000D02*
X13611000Y-6008000D01*
X13556000Y-10381000D02*
X13556000Y-10635000D01*
X13556000Y-10635000D02*
X13556000Y-10889000D01*
X13556000Y-10889000D02*
X13556000Y-11143000D01*
X13556000Y-11143000D02*
X13556000Y-11397000D01*
X13556000Y-11397000D02*
X13556000Y-11651000D01*
X13556000Y-11651000D02*
X13556000Y-11850000D01*
X13611000Y-12358000D02*
X13556000Y-12358000D01*
X13683000Y-12286000D02*
X13611000Y-12358000D01*
X13611000Y-11850000D02*
X13683000Y-11778000D01*
X13556000Y-11850000D02*
X13611000Y-11850000D01*
X13611000Y-13230000D02*
X13556000Y-13230000D01*
X13683000Y-13302000D02*
X13611000Y-13230000D01*
X13611000Y-14500000D02*
X13556000Y-14500000D01*
X13683000Y-14572000D02*
X13611000Y-14500000D01*
X13611000Y-14246000D02*
X13683000Y-14318000D01*
X13556000Y-14246000D02*
X13611000Y-14246000D01*
X13611000Y-13738000D02*
X13556000Y-13738000D01*
X13683000Y-13810000D02*
X13611000Y-13738000D01*
X13611000Y-13484000D02*
X13683000Y-13556000D01*
X13556000Y-13484000D02*
X13611000Y-13484000D01*
X13611000Y-13992000D02*
X13683000Y-14064000D01*
X13556000Y-13992000D02*
X13611000Y-13992000D01*
X13810000Y-5500000D02*
X13865000Y-5500000D01*
X13865000Y-5500000D02*
X13937000Y-5428000D01*
X13937000Y-5682000D02*
X13865000Y-5754000D01*
X13865000Y-5754000D02*
X13810000Y-5754000D01*
X13937000Y-6190000D02*
X13865000Y-6262000D01*
X13865000Y-6262000D02*
X13810000Y-6262000D01*
X13810000Y-6516000D02*
X13865000Y-6516000D01*
X13865000Y-6516000D02*
X13937000Y-6444000D01*
X13937000Y-6698000D02*
X13865000Y-6770000D01*
X13865000Y-6770000D02*
X13810000Y-6770000D01*
X13810000Y-8150000D02*
X13865000Y-8150000D01*
X13865000Y-8150000D02*
X13937000Y-8222000D01*
X13937000Y-7714000D02*
X13865000Y-7642000D01*
X13865000Y-7642000D02*
X13810000Y-7642000D01*
X13810000Y-8349000D02*
X13810000Y-8150000D01*
X13810000Y-8603000D02*
X13810000Y-8349000D01*
X13810000Y-8857000D02*
X13810000Y-8603000D01*
X13810000Y-9111000D02*
X13810000Y-8857000D01*
X13810000Y-9365000D02*
X13810000Y-9111000D01*
X13810000Y-9619000D02*
X13810000Y-9365000D01*
X13810000Y-6008000D02*
X13865000Y-6008000D01*
X13865000Y-6008000D02*
X13937000Y-5936000D01*
X13810000Y-13484000D02*
X13865000Y-13484000D01*
X13865000Y-13484000D02*
X13937000Y-13556000D01*
X13937000Y-13810000D02*
X13865000Y-13738000D01*
X13865000Y-13738000D02*
X13810000Y-13738000D01*
X13810000Y-14246000D02*
X13865000Y-14246000D01*
X13865000Y-14246000D02*
X13937000Y-14318000D01*
X13937000Y-14572000D02*
X13865000Y-14500000D01*
X13865000Y-14500000D02*
X13810000Y-14500000D01*
X13937000Y-13302000D02*
X13865000Y-13230000D01*
X13865000Y-13230000D02*
X13810000Y-13230000D01*
X13810000Y-11850000D02*
X13865000Y-11850000D01*
X13865000Y-11850000D02*
X13937000Y-11778000D01*
X13937000Y-12286000D02*
X13865000Y-12358000D01*
X13865000Y-12358000D02*
X13810000Y-12358000D01*
X13810000Y-11651000D02*
X13810000Y-11850000D01*
X13810000Y-11397000D02*
X13810000Y-11651000D01*
X13810000Y-11143000D02*
X13810000Y-11397000D01*
X13810000Y-10889000D02*
X13810000Y-11143000D01*
X13810000Y-10635000D02*
X13810000Y-10889000D01*
X13810000Y-10381000D02*
X13810000Y-10635000D01*
X13810000Y-13992000D02*
X13865000Y-13992000D01*
X13865000Y-13992000D02*
X13937000Y-14064000D01*
X14064000Y-9619000D02*
X14064000Y-9365000D01*
X14064000Y-9365000D02*
X14064000Y-9111000D01*
X14064000Y-9111000D02*
X14064000Y-8857000D01*
X14064000Y-8857000D02*
X14064000Y-8603000D01*
X14064000Y-8603000D02*
X14064000Y-8349000D01*
X14064000Y-8349000D02*
X14064000Y-8150000D01*
X14119000Y-7642000D02*
X14064000Y-7642000D01*
X14191000Y-7714000D02*
X14119000Y-7642000D01*
X14119000Y-8150000D02*
X14191000Y-8222000D01*
X14064000Y-8150000D02*
X14119000Y-8150000D01*
X14119000Y-6770000D02*
X14064000Y-6770000D01*
X14191000Y-6698000D02*
X14119000Y-6770000D01*
X14119000Y-6516000D02*
X14191000Y-6444000D01*
X14064000Y-6516000D02*
X14119000Y-6516000D01*
X14119000Y-6262000D02*
X14064000Y-6262000D01*
X14191000Y-6190000D02*
X14119000Y-6262000D01*
X14119000Y-5754000D02*
X14064000Y-5754000D01*
X14191000Y-5682000D02*
X14119000Y-5754000D01*
X14119000Y-5500000D02*
X14191000Y-5428000D01*
X14064000Y-5500000D02*
X14119000Y-5500000D01*
X14119000Y-6008000D02*
X14191000Y-5936000D01*
X14064000Y-6008000D02*
X14119000Y-6008000D01*
X14064000Y-10381000D02*
X14064000Y-10635000D01*
X14064000Y-10635000D02*
X14064000Y-10889000D01*
X14064000Y-10889000D02*
X14064000Y-11143000D01*
X14064000Y-11143000D02*
X14064000Y-11397000D01*
X14064000Y-11397000D02*
X14064000Y-11651000D01*
X14064000Y-11651000D02*
X14064000Y-11850000D01*
X14119000Y-12358000D02*
X14064000Y-12358000D01*
X14191000Y-12286000D02*
X14119000Y-12358000D01*
X14119000Y-11850000D02*
X14191000Y-11778000D01*
X14064000Y-11850000D02*
X14119000Y-11850000D01*
X14119000Y-13230000D02*
X14064000Y-13230000D01*
X14191000Y-13302000D02*
X14119000Y-13230000D01*
X14119000Y-14500000D02*
X14064000Y-14500000D01*
X14191000Y-14572000D02*
X14119000Y-14500000D01*
X14119000Y-14246000D02*
X14191000Y-14318000D01*
X14064000Y-14246000D02*
X14119000Y-14246000D01*
X14119000Y-13738000D02*
X14064000Y-13738000D01*
X14191000Y-13810000D02*
X14119000Y-13738000D01*
X14119000Y-13484000D02*
X14191000Y-13556000D01*
X14064000Y-13484000D02*
X14119000Y-13484000D01*
X14119000Y-13992000D02*
X14191000Y-14064000D01*
X14064000Y-13992000D02*
X14119000Y-13992000D01*
X14318000Y-9619000D02*
X14318000Y-9365000D01*
X14318000Y-9365000D02*
X14318000Y-9111000D01*
X14318000Y-9111000D02*
X14318000Y-8857000D01*
X14318000Y-8857000D02*
X14318000Y-8603000D01*
X14318000Y-8603000D02*
X14318000Y-8349000D01*
X14318000Y-8349000D02*
X14318000Y-8150000D01*
X14373000Y-7642000D02*
X14318000Y-7642000D01*
X14445000Y-7714000D02*
X14373000Y-7642000D01*
X14373000Y-8150000D02*
X14445000Y-8222000D01*
X14318000Y-8150000D02*
X14373000Y-8150000D01*
X14373000Y-6770000D02*
X14318000Y-6770000D01*
X14445000Y-6698000D02*
X14373000Y-6770000D01*
X14373000Y-6516000D02*
X14445000Y-6444000D01*
X14318000Y-6516000D02*
X14373000Y-6516000D01*
X14373000Y-6262000D02*
X14318000Y-6262000D01*
X14445000Y-6190000D02*
X14373000Y-6262000D01*
X14373000Y-5754000D02*
X14318000Y-5754000D01*
X14445000Y-5682000D02*
X14373000Y-5754000D01*
X14373000Y-5500000D02*
X14445000Y-5428000D01*
X14318000Y-5500000D02*
X14373000Y-5500000D01*
X14373000Y-6008000D02*
X14445000Y-5936000D01*
X14318000Y-6008000D02*
X14373000Y-6008000D01*
X14318000Y-10381000D02*
X14318000Y-10635000D01*
X14318000Y-10635000D02*
X14318000Y-10889000D01*
X14318000Y-10889000D02*
X14318000Y-11143000D01*
X14318000Y-11143000D02*
X14318000Y-11397000D01*
X14318000Y-11397000D02*
X14318000Y-11651000D01*
X14318000Y-11651000D02*
X14318000Y-11850000D01*
X14373000Y-12358000D02*
X14318000Y-12358000D01*
X14445000Y-12286000D02*
X14373000Y-12358000D01*
X14373000Y-11850000D02*
X14445000Y-11778000D01*
X14318000Y-11850000D02*
X14373000Y-11850000D01*
X14373000Y-13230000D02*
X14318000Y-13230000D01*
X14445000Y-13302000D02*
X14373000Y-13230000D01*
X14373000Y-14500000D02*
X14318000Y-14500000D01*
X14445000Y-14572000D02*
X14373000Y-14500000D01*
X14373000Y-14246000D02*
X14445000Y-14318000D01*
X14318000Y-14246000D02*
X14373000Y-14246000D01*
X14373000Y-13738000D02*
X14318000Y-13738000D01*
X14445000Y-13810000D02*
X14373000Y-13738000D01*
X14373000Y-13484000D02*
X14445000Y-13556000D01*
X14318000Y-13484000D02*
X14373000Y-13484000D01*
X14373000Y-13992000D02*
X14445000Y-14064000D01*
X14318000Y-13992000D02*
X14373000Y-13992000D01*
X14572000Y-6008000D02*
X14627000Y-6008000D01*
X14627000Y-6008000D02*
X14699000Y-5936000D01*
X14572000Y-5500000D02*
X14627000Y-5500000D01*
X14627000Y-5500000D02*
X14699000Y-5428000D01*
X14699000Y-5682000D02*
X14627000Y-5754000D01*
X14627000Y-5754000D02*
X14572000Y-5754000D01*
X14699000Y-6190000D02*
X14627000Y-6262000D01*
X14627000Y-6262000D02*
X14572000Y-6262000D01*
X14572000Y-6516000D02*
X14627000Y-6516000D01*
X14627000Y-6516000D02*
X14699000Y-6444000D01*
X14699000Y-6698000D02*
X14627000Y-6770000D01*
X14627000Y-6770000D02*
X14572000Y-6770000D01*
X14572000Y-8150000D02*
X14627000Y-8150000D01*
X14627000Y-8150000D02*
X14699000Y-8222000D01*
X14699000Y-7714000D02*
X14627000Y-7642000D01*
X14627000Y-7642000D02*
X14572000Y-7642000D01*
X14572000Y-8349000D02*
X14572000Y-8150000D01*
X14572000Y-8603000D02*
X14572000Y-8349000D01*
X14572000Y-8857000D02*
X14572000Y-8603000D01*
X14572000Y-9111000D02*
X14572000Y-8857000D01*
X14572000Y-9365000D02*
X14572000Y-9111000D01*
X14572000Y-9619000D02*
X14572000Y-9365000D01*
X14572000Y-13484000D02*
X14627000Y-13484000D01*
X14627000Y-13484000D02*
X14699000Y-13556000D01*
X14699000Y-13810000D02*
X14627000Y-13738000D01*
X14627000Y-13738000D02*
X14572000Y-13738000D01*
X14572000Y-14246000D02*
X14627000Y-14246000D01*
X14627000Y-14246000D02*
X14699000Y-14318000D01*
X14699000Y-14572000D02*
X14627000Y-14500000D01*
X14627000Y-14500000D02*
X14572000Y-14500000D01*
X14699000Y-13302000D02*
X14627000Y-13230000D01*
X14627000Y-13230000D02*
X14572000Y-13230000D01*
X14572000Y-11850000D02*
X14627000Y-11850000D01*
X14627000Y-11850000D02*
X14699000Y-11778000D01*
X14699000Y-12286000D02*
X14627000Y-12358000D01*
X14627000Y-12358000D02*
X14572000Y-12358000D01*
X14572000Y-11651000D02*
X14572000Y-11850000D01*
X14572000Y-11397000D02*
X14572000Y-11651000D01*
X14572000Y-11143000D02*
X14572000Y-11397000D01*
X14572000Y-10889000D02*
X14572000Y-11143000D01*
X14572000Y-10635000D02*
X14572000Y-10889000D01*
X14572000Y-10381000D02*
X14572000Y-10635000D01*
X14572000Y-13992000D02*
X14627000Y-13992000D01*
X14627000Y-13992000D02*
X14699000Y-14064000D01*
X14318000Y-5864000D02*
X14572000Y-5864000D01*
X11016000Y-5864000D02*
X10961000Y-5864000D01*
X10961000Y-5864000D02*
X10508000Y-6317000D01*
X12794000Y-5864000D02*
X13048000Y-5864000D01*
X13048000Y-5864000D02*
X13302000Y-5864000D01*
X13556000Y-5864000D02*
X13810000Y-5864000D01*
X13302000Y-5864000D02*
X13556000Y-5864000D01*
X14064000Y-5864000D02*
X14318000Y-5864000D01*
X13810000Y-5864000D02*
X14064000Y-5864000D01*
X12032000Y-5864000D02*
X12286000Y-5864000D01*
X12286000Y-5864000D02*
X12540000Y-5864000D01*
X12794000Y-5864000D02*
X13048000Y-5864000D01*
X12540000Y-5864000D02*
X12794000Y-5864000D01*
X11524000Y-5864000D02*
X11778000Y-5864000D01*
X11778000Y-5864000D02*
X12032000Y-5864000D01*
X11270000Y-5864000D02*
X11524000Y-5864000D01*
X11016000Y-5864000D02*
X11270000Y-5864000D01*
X12794000Y-14136000D02*
X13048000Y-14136000D01*
X13048000Y-14136000D02*
X13302000Y-14136000D01*
X13048000Y-14136000D02*
X12993000Y-14136000D01*
X13556000Y-14136000D02*
X13501000Y-14136000D01*
X13556000Y-14136000D02*
X13810000Y-14136000D01*
X13302000Y-14136000D02*
X13556000Y-14136000D01*
X13302000Y-14136000D02*
X13247000Y-14136000D01*
X14318000Y-14136000D02*
X14263000Y-14136000D01*
X14318000Y-14136000D02*
X14572000Y-14136000D01*
X14572000Y-14136000D02*
X14517000Y-14136000D01*
X14064000Y-14136000D02*
X14009000Y-14136000D01*
X14064000Y-14136000D02*
X14318000Y-14136000D01*
X13810000Y-14136000D02*
X14064000Y-14136000D01*
X13810000Y-14136000D02*
X13755000Y-14136000D01*
X12032000Y-14136000D02*
X11977000Y-14136000D01*
X12032000Y-14136000D02*
X12286000Y-14136000D01*
X12286000Y-14136000D02*
X12540000Y-14136000D01*
X12286000Y-14136000D02*
X12231000Y-14136000D01*
X12794000Y-14136000D02*
X12739000Y-14136000D01*
X12794000Y-14136000D02*
X13048000Y-14136000D01*
X12540000Y-14136000D02*
X12794000Y-14136000D01*
X12540000Y-14136000D02*
X12485000Y-14136000D01*
X11524000Y-14136000D02*
X11469000Y-14136000D01*
X11524000Y-14136000D02*
X11778000Y-14136000D01*
X11778000Y-14136000D02*
X12032000Y-14136000D01*
X11778000Y-14136000D02*
X11723000Y-14136000D01*
X11270000Y-14136000D02*
X11215000Y-14136000D01*
X11270000Y-14136000D02*
X11524000Y-14136000D01*
X11016000Y-14136000D02*
X11270000Y-14136000D01*
X11016000Y-14136000D02*
X10961000Y-14136000D01*
X10961000Y-14136000D02*
X10508000Y-13683000D01*
M02*
